<?xml version="1.0" encoding="UTF-8"?>
<svg id="_Шар_2" data-name="Шар 2" xmlns="http://www.w3.org/2000/svg" viewBox="0 0 105.27 109.35">
  <defs>
    <style>
      .cls-1 {
        fill: #003778;
      }
    </style>
  </defs>
  <g id="Capa_1" data-name="Capa 1">
    <g>
      <g>
        <path class="cls-1" d="m78.85,109.35c-.24,0-.47-.07-.68-.2l-13.34-8.67c-7.76-5.04-12.39-13.58-12.39-22.83v-23.65c0-.27.09-.53.25-.75.32-.43,8.13-10.57,26.17-10.57s25.84,10.13,26.17,10.57c.16.22.25.48.25.75v23.65c0,9.25-4.63,17.79-12.39,22.83h0l-13.34,8.67c-.21.13-.44.2-.68.2Zm-23.92-54.91v23.2c0,8.4,4.21,16.16,11.25,20.74l12.66,8.23,12.66-8.23c7.05-4.58,11.25-12.33,11.25-20.74v-23.2c-1.42-1.62-8.9-9.27-23.92-9.27s-22.51,7.64-23.92,9.26Zm37.26,44.99h0,0Z"/>
        <path class="cls-1" d="m74.73,84.05c-.32,0-.64-.12-.88-.37l-7.83-7.83c-.49-.49-.49-1.28,0-1.77s1.28-.49,1.77,0l6.95,6.94,15.2-15.19c.49-.49,1.28-.49,1.77,0s.49,1.28,0,1.77l-16.08,16.08c-.24.24-.56.37-.88.37Z"/>
      </g>
      <g>
        <path class="cls-1" d="m46.96,54.64H5.85c-3.23,0-5.85-2.62-5.85-5.85s2.62-5.85,5.85-5.85h51.88c.69,0,1.25.56,1.25,1.25s-.56,1.25-1.25,1.25H5.85c-1.85,0-3.35,1.5-3.35,3.35s1.5,3.35,3.35,3.35h41.11c.69,0,1.25.56,1.25,1.25s-.56,1.25-1.25,1.25Z"/>
        <path class="cls-1" d="m70.26,39.88c-.69,0-1.25-.56-1.25-1.25,0-12.87-8.19-24.28-20.38-28.38-.65-.22-1.01-.93-.79-1.58.22-.65.93-1.01,1.58-.79,13.21,4.44,22.09,16.8,22.09,30.75,0,.69-.56,1.25-1.25,1.25Z"/>
        <path class="cls-1" d="m7.9,45.38c-.69,0-1.25-.56-1.25-1.25v-5.5c0-14.03,8.95-26.41,22.26-30.81.66-.22,1.36.14,1.58.8.22.66-.14,1.36-.8,1.58-12.29,4.05-20.55,15.48-20.55,28.43v5.5c0,.69-.56,1.25-1.25,1.25Z"/>
        <path class="cls-1" d="m46.39,22.44c-.09,0-.18,0-.27-.03-.67-.15-1.1-.81-.95-1.49l2.25-10.22c.59-2.55-.22-5.16-2.05-6.67-1.19-.98-2.7-1.52-4.25-1.52h-4.07c-1.55,0-3.06.54-4.25,1.53-1.83,1.51-2.64,4.13-2.05,6.66l2.25,10.23c.15.67-.28,1.34-.95,1.49-.68.15-1.34-.28-1.49-.95l-2.25-10.22c-.79-3.44.35-7.03,2.9-9.14,1.64-1.35,3.71-2.1,5.84-2.1h4.07c2.13,0,4.2.74,5.84,2.1,2.55,2.11,3.69,5.7,2.9,9.15l-2.24,10.21c-.13.58-.65.98-1.22.98Z"/>
        <g>
          <path class="cls-1" d="m26.3,44.93c-.69,0-1.25-.56-1.25-1.25v-12.27c0-.69.56-1.25,1.25-1.25s1.25.56,1.25,1.25v12.27c0,.69-.56,1.25-1.25,1.25Z"/>
          <path class="cls-1" d="m51.86,44.93c-.69,0-1.25-.56-1.25-1.25v-12.27c0-.69.56-1.25,1.25-1.25s1.25.56,1.25,1.25v12.27c0,.69-.56,1.25-1.25,1.25Z"/>
        </g>
      </g>
    </g>
  </g>
</svg>