<?xml version="1.0" encoding="UTF-8"?>
<svg id="_Шар_2" data-name="Шар 2" xmlns="http://www.w3.org/2000/svg" viewBox="0 0 103.56 83.31">
  <defs>
    <style>
      .cls-1 {
        fill: #003778;
      }
    </style>
  </defs>
  <g id="Capa_1" data-name="Capa 1">
    <g>
      <path class="cls-1" d="m47.33,83.31c-.18,0-.35-.04-.52-.11-.47-.21-46.81-21.61-46.81-58.16C0,11.23,11.23,0,25.04,0c9.42,0,18.05,5.38,22.29,13.63C51.57,5.38,60.19,0,69.62,0c13.8,0,25.04,11.23,25.04,25.04,0,3.66-.47,7.34-1.39,10.92-.17.67-.85,1.07-1.52.9-.67-.17-1.07-.85-.9-1.52.87-3.38,1.31-6.85,1.31-10.3,0-12.43-10.11-22.54-22.54-22.54-9.36,0-17.85,5.89-21.12,14.66-.18.49-.65.81-1.17.81s-.99-.32-1.17-.81c-3.27-8.77-11.76-14.66-21.12-14.66C12.61,2.5,2.5,12.61,2.5,25.04c0,32.9,39.81,53.21,44.83,55.64,1.47-.71,5.94-2.94,11.47-6.54,1.62-1.06,3.24-2.17,4.8-3.3.56-.41,1.34-.28,1.75.28.41.56.28,1.34-.28,1.75-1.59,1.16-3.24,2.3-4.9,3.38-6.93,4.52-12.1,6.87-12.32,6.97-.16.07-.34.11-.52.11Z"/>
      <path class="cls-1" d="m79.61,79.55c-4.96,0-8.99-4.03-8.99-8.99v-5.97h-5.97c-4.96,0-8.99-4.03-8.99-8.99s4.03-8.99,8.99-8.99h5.97v-5.97c0-4.96,4.03-8.99,8.99-8.99s8.99,4.03,8.99,8.99v5.97h5.97c4.96,0,8.99,4.03,8.99,8.99s-4.03,8.99-8.99,8.99h-5.97v5.97c0,4.96-4.03,8.99-8.99,8.99Zm-14.96-30.44c-3.58,0-6.49,2.91-6.49,6.49s2.91,6.49,6.49,6.49h7.22c.69,0,1.25.56,1.25,1.25v7.22c0,3.58,2.91,6.49,6.49,6.49s6.49-2.91,6.49-6.49v-7.22c0-.69.56-1.25,1.25-1.25h7.22c3.58,0,6.49-2.91,6.49-6.49s-2.91-6.49-6.49-6.49h-7.22c-.69,0-1.25-.56-1.25-1.25v-7.22c0-3.58-2.91-6.49-6.49-6.49s-6.49,2.91-6.49,6.49v7.22c0,.69-.56,1.25-1.25,1.25h-7.22Z"/>
    </g>
  </g>
</svg>