<?xml version="1.0" encoding="UTF-8"?>
<svg id="_Шар_2" data-name="Шар 2" xmlns="http://www.w3.org/2000/svg" viewBox="0 0 84.23 107.77">
  <defs>
    <style>
      .cls-1 {
        fill: #003778;
      }
    </style>
  </defs>
  <g id="Capa_1" data-name="Capa 1">
    <g>
      <g>
        <path class="cls-1" d="m20.92,26.47c-7.3,0-13.23-5.94-13.23-13.23S13.62,0,20.92,0s13.23,5.94,13.23,13.23-5.94,13.23-13.23,13.23Zm0-23.97c-5.92,0-10.73,4.81-10.73,10.73s4.81,10.73,10.73,10.73,10.73-4.81,10.73-10.73S26.83,2.5,20.92,2.5Z"/>
        <g>
          <path class="cls-1" d="m1.25,52.87c-.69,0-1.25-.56-1.25-1.25v-13.52c0-6.2,5.04-11.24,11.24-11.24.69,0,1.25.56,1.25,1.25s-.56,1.25-1.25,1.25c-4.82,0-8.74,3.92-8.74,8.74v13.52c0,.69-.56,1.25-1.25,1.25Z"/>
          <path class="cls-1" d="m40.58,39.35c-.69,0-1.25-.56-1.25-1.25,0-4.82-3.92-8.74-8.74-8.74-.69,0-1.25-.56-1.25-1.25s.56-1.25,1.25-1.25c6.2,0,11.24,5.04,11.24,11.24,0,.69-.56,1.25-1.25,1.25Z"/>
        </g>
      </g>
      <g>
        <path class="cls-1" d="m27.92,107.77c-5.41,0-10.49-2.11-14.31-5.93-3.82-3.82-5.93-8.91-5.93-14.31s2.11-10.49,5.93-14.31l36.07-36.07c3.82-3.82,8.91-5.93,14.31-5.93s10.49,2.11,14.31,5.93c3.82,3.82,5.93,8.91,5.93,14.31s-2.11,10.49-5.93,14.31l-36.07,36.07c-3.82,3.82-8.91,5.93-14.31,5.93ZM63.99,33.72c-4.74,0-9.19,1.85-12.54,5.2L15.38,74.98c-3.35,3.35-5.2,7.81-5.2,12.54s1.85,9.19,5.2,12.54c3.35,3.35,7.81,5.2,12.54,5.2s9.19-1.85,12.54-5.2l36.07-36.07h0c3.35-3.35,5.2-7.81,5.2-12.54s-1.85-9.19-5.2-12.54c-3.35-3.35-7.81-5.2-12.54-5.2Z"/>
        <path class="cls-1" d="m45.96,86.09c-.33,0-.65-.13-.88-.37l-15.35-15.35c-.23-.23-.37-.55-.37-.88s.13-.65.37-.88l15.35-15.35c.47-.47,1.3-.47,1.77,0l15.35,15.35c.49.49.49,1.28,0,1.77l-15.35,15.35c-.23.23-.55.37-.88.37Zm-13.58-16.6l13.58,13.58,13.58-13.58-13.58-13.58-13.58,13.58Z"/>
        <g>
          <rect class="cls-1" x="55.93" y="48.77" width="3.07" height="3.07"/>
          <rect class="cls-1" x="63.61" y="56.45" width="3.07" height="3.07"/>
          <rect class="cls-1" x="71.28" y="48.77" width="3.07" height="3.07"/>
          <rect class="cls-1" x="63.61" y="41.1" width="3.07" height="3.07"/>
        </g>
        <g>
          <rect class="cls-1" x="17.56" y="87.14" width="3.07" height="3.07"/>
          <rect class="cls-1" x="25.24" y="94.81" width="3.07" height="3.07"/>
          <rect class="cls-1" x="32.91" y="87.14" width="3.07" height="3.07"/>
          <rect class="cls-1" x="25.24" y="79.47" width="3.07" height="3.07"/>
        </g>
      </g>
    </g>
  </g>
</svg>