<?xml version="1.0" encoding="UTF-8"?>
<svg id="_Шар_2" data-name="Шар 2" xmlns="http://www.w3.org/2000/svg" viewBox="0 0 81.32 107.77">
  <defs>
    <style>
      .cls-1 {
        fill: #003778;
      }
    </style>
  </defs>
  <g id="Capa_1" data-name="Capa 1">
    <g>
      <g>
        <path class="cls-1" d="m20.92,26.47c-7.3,0-13.23-5.94-13.23-13.23S13.62,0,20.92,0s13.23,5.94,13.23,13.23-5.94,13.23-13.23,13.23Zm0-23.97c-5.92,0-10.73,4.81-10.73,10.73s4.81,10.73,10.73,10.73,10.73-4.81,10.73-10.73S26.83,2.5,20.92,2.5Z"/>
        <g>
          <path class="cls-1" d="m1.25,52.87c-.69,0-1.25-.56-1.25-1.25v-13.52c0-6.2,5.04-11.24,11.24-11.24.69,0,1.25.56,1.25,1.25s-.56,1.25-1.25,1.25c-4.82,0-8.74,3.92-8.74,8.74v13.52c0,.69-.56,1.25-1.25,1.25Z"/>
          <path class="cls-1" d="m40.58,39.35c-.69,0-1.25-.56-1.25-1.25,0-4.82-3.92-8.74-8.74-8.74-.69,0-1.25-.56-1.25-1.25s.56-1.25,1.25-1.25c6.2,0,11.24,5.04,11.24,11.24,0,.69-.56,1.25-1.25,1.25Z"/>
        </g>
      </g>
      <g>
        <path class="cls-1" d="m54.91,107.77c-.24,0-.47-.07-.68-.2l-13.34-8.67c-7.76-5.04-12.39-13.58-12.39-22.83v-23.65c0-.27.09-.53.25-.75.32-.43,8.13-10.57,26.17-10.57s25.84,10.13,26.17,10.57c.16.22.25.48.25.75v23.65c0,9.25-4.63,17.79-12.39,22.83h0l-13.34,8.67c-.21.13-.44.2-.68.2Zm-23.92-54.91v23.2c0,8.4,4.21,16.16,11.25,20.74l12.66,8.23,12.66-8.23c7.05-4.58,11.25-12.33,11.25-20.74v-23.2c-1.42-1.62-8.9-9.27-23.92-9.27s-22.51,7.64-23.92,9.26Zm37.26,44.99h0,0Z"/>
        <path class="cls-1" d="m50.78,82.46c-.32,0-.64-.12-.88-.37l-7.83-7.83c-.49-.49-.49-1.28,0-1.77s1.28-.49,1.77,0l6.95,6.94,15.2-15.19c.49-.49,1.28-.49,1.77,0s.49,1.28,0,1.77l-16.08,16.08c-.24.24-.56.37-.88.37Z"/>
      </g>
    </g>
  </g>
</svg>