<?xml version="1.0" encoding="UTF-8"?>
<svg id="_Шар_2" data-name="Шар 2" xmlns="http://www.w3.org/2000/svg" viewBox="0 0 69.96 88.51">
  <defs>
    <style>
      .cls-1 {
        fill: #003778;
      }
    </style>
  </defs>
  <g id="Capa_1" data-name="Capa 1">
    <g>
      <path class="cls-1" d="m34.98,88.51c-.24,0-.47-.07-.68-.2l-17.89-11.63C6.14,70,0,58.7,0,46.44V14.74c0-.27.09-.53.25-.75C.68,13.42,11.02,0,34.98,0s34.3,13.42,34.73,13.99c.16.22.25.48.25.75v31.7c0,12.26-6.14,23.56-16.41,30.24l-17.89,11.63c-.21.13-.44.2-.68.2ZM2.5,15.19v31.25c0,11.41,5.71,21.93,15.28,28.15l17.2,11.18,17.2-11.18h0c9.57-6.22,15.28-16.74,15.28-28.15V15.19c-1.67-1.96-11.8-12.69-32.48-12.69S4.17,13.22,2.5,15.19Z"/>
      <path class="cls-1" d="m26.33,56.55c-.62,0-1.23-.19-1.75-.57-.93-.67-1.38-1.79-1.19-2.92l1.39-8.08-5.87-5.72c-.82-.8-1.11-1.98-.76-3.07s1.28-1.87,2.41-2.03l8.11-1.18,3.63-7.35c.51-1.03,1.54-1.67,2.68-1.67s2.17.64,2.68,1.67h0l3.63,7.35,8.11,1.18c1.13.16,2.06.94,2.42,2.04.35,1.09.06,2.26-.76,3.06l-5.87,5.72,1.39,8.08c.19,1.13-.26,2.25-1.19,2.92-.93.67-2.14.76-3.15.23l-7.25-3.81-7.25,3.81c-.44.23-.92.35-1.39.35Zm8.65-30.09c-.11,0-.32.04-.44.27l-3.92,7.94c-.18.37-.53.62-.94.68l-8.76,1.27c-.26.04-.36.23-.4.33-.04.11-.07.32.12.5l6.34,6.18c.29.29.43.7.36,1.11l-1.5,8.73c-.04.26.1.41.19.48.09.07.28.16.52.04l7.84-4.12c.37-.19.8-.19,1.16,0l7.84,4.12c.23.12.42.03.52-.04.09-.07.24-.22.19-.48l-1.5-8.73c-.07-.41.07-.82.36-1.11l6.34-6.18c.19-.19.16-.39.12-.5s-.13-.3-.4-.33l-8.76-1.27c-.41-.06-.76-.31-.94-.68l-3.92-7.94c-.12-.24-.33-.27-.44-.27Z"/>
    </g>
  </g>
</svg>