<?xml version="1.0" encoding="UTF-8"?>
<svg id="_Шар_2" data-name="Шар 2" xmlns="http://www.w3.org/2000/svg" viewBox="0 0 89.55 111.65">
  <defs>
    <style>
      .cls-1 {
        fill: #003778;
      }
    </style>
  </defs>
  <g id="Capa_1" data-name="Capa 1">
    <g>
      <g>
        <path class="cls-1" d="m63.13,111.65c-.24,0-.47-.07-.68-.2l-13.34-8.67c-7.76-5.04-12.39-13.58-12.39-22.83v-23.65c0-.27.09-.53.25-.75.32-.43,8.13-10.57,26.17-10.57s25.84,10.13,26.17,10.57c.16.22.25.48.25.75v23.65c0,9.25-4.63,17.79-12.39,22.83h0l-13.34,8.67c-.21.13-.44.2-.68.2Zm-23.92-54.91v23.2c0,8.4,4.21,16.16,11.25,20.74l12.66,8.23,12.66-8.23c7.05-4.58,11.25-12.33,11.25-20.74v-23.2c-1.42-1.62-8.9-9.27-23.92-9.27s-22.51,7.64-23.92,9.26Zm37.26,44.99h0,0Z"/>
        <path class="cls-1" d="m59.01,86.34c-.32,0-.64-.12-.88-.37l-7.83-7.83c-.49-.49-.49-1.28,0-1.77s1.28-.49,1.77,0l6.95,6.94,15.2-15.19c.49-.49,1.28-.49,1.77,0s.49,1.28,0,1.77l-16.08,16.08c-.24.24-.56.37-.88.37Z"/>
      </g>
      <g>
        <path class="cls-1" d="m29.14,53.7c-3.16,0-5.74-2.57-5.74-5.74v-12.34h-2.94c-3.16,0-5.74-2.57-5.74-5.74s2.57-5.74,5.74-5.74h2.94v-4.08c0-3.16,2.57-5.74,5.74-5.74s5.74,2.57,5.74,5.74v4.08h2.94c3.16,0,5.74,2.57,5.74,5.74s-2.57,5.74-5.74,5.74h-2.94v12.34c0,3.16-2.57,5.74-5.74,5.74Zm-8.68-27.05c-1.79,0-3.24,1.45-3.24,3.24s1.45,3.24,3.24,3.24h4.19c.69,0,1.25.56,1.25,1.25v13.59c0,1.79,1.45,3.24,3.24,3.24s3.24-1.45,3.24-3.24v-13.59c0-.69.56-1.25,1.25-1.25h4.19c1.79,0,3.24-1.45,3.24-3.24s-1.45-3.24-3.24-3.24h-4.19c-.69,0-1.25-.56-1.25-1.25v-5.33c0-1.79-1.45-3.24-3.24-3.24s-3.24,1.45-3.24,3.24v5.33c0,.69-.56,1.25-1.25,1.25h-4.19Z"/>
        <path class="cls-1" d="m30.91,70.11H1.25c-.69,0-1.25-.56-1.25-1.25V29.33C0,13.16,13.16,0,29.33,0s29.33,13.16,29.33,29.33v7.9c0,.69-.56,1.25-1.25,1.25s-1.25-.56-1.25-1.25v-7.9c0-14.79-12.03-26.83-26.83-26.83S2.5,14.53,2.5,29.33v38.29h28.41c.69,0,1.25.56,1.25,1.25s-.56,1.25-1.25,1.25Z"/>
      </g>
    </g>
  </g>
</svg>