<?xml version="1.0" encoding="UTF-8"?>
<svg id="_Шар_2" data-name="Шар 2" xmlns="http://www.w3.org/2000/svg" viewBox="0 0 79.08 94.4">
  <defs>
    <style>
      .cls-1 {
        fill: #91c3d6;
      }
    </style>
  </defs>
  <g id="Capa_1" data-name="Capa 1">
    <path class="cls-1" d="m39.54,94.4c-.25,0-.5-.08-.72-.23-1.59-1.11-38.83-27.49-38.83-54.63C0,17.74,17.74,0,39.54,0s39.54,17.74,39.54,39.54c0,27.14-37.24,53.52-38.82,54.63-.22.15-.47.23-.72.23Zm0-91.9C19.12,2.5,2.5,19.12,2.5,39.54c0,23.84,31.82,48.23,37.04,52.07,5.22-3.84,37.04-28.22,37.04-52.07,0-20.42-16.62-37.04-37.04-37.04Z"/>
    <path class="cls-1" d="m39.54,41.29c-7.02,0-12.74-5.71-12.74-12.74s5.71-12.74,12.74-12.74,12.74,5.71,12.74,12.74-5.71,12.74-12.74,12.74Zm0-22.98c-5.65,0-10.24,4.59-10.24,10.24s4.59,10.24,10.24,10.24,10.24-4.59,10.24-10.24-4.59-10.24-10.24-10.24Z"/>
  </g>
</svg>