<?xml version="1.0" encoding="UTF-8"?>
<svg id="_Шар_2" data-name="Шар 2" xmlns="http://www.w3.org/2000/svg" xmlns:xlink="http://www.w3.org/1999/xlink" viewBox="0 0 28.56 28.56">
  <defs>
    <style>
      .cls-1 {
        fill: #ffda44;
      }

      .cls-2 {
        fill: #fff;
      }

      .cls-3 {
        fill: #e2e6eb;
      }

      .cls-4 {
        fill: #338af3;
      }

      .cls-5 {
        clip-path: url(#clippath);
      }

      .cls-6 {
        fill: none;
      }
    </style>
    <clipPath id="clippath">
      <circle class="cls-6" cx="14.28" cy="14.28" r="13.28"/>
    </clipPath>
  </defs>
  <g id="Capa_1" data-name="Capa 1">
    <g>
      <g>
        <path class="cls-4" d="M14.28,28.06C6.68,28.06,.5,21.88,.5,14.28S6.68,.5,14.28,.5s13.78,6.18,13.78,13.78-6.18,13.78-13.78,13.78Z"/>
        <path class="cls-3" d="M14.28,1c7.33,0,13.28,5.95,13.28,13.28s-5.95,13.28-13.28,13.28S1,21.62,1,14.28,6.95,1,14.28,1m0-1C6.41,0,0,6.41,0,14.28s6.41,14.28,14.28,14.28,14.28-6.41,14.28-14.28S22.16,0,14.28,0h0Z"/>
      </g>
      <g class="cls-5">
        <rect class="cls-2" x=".17" y="8.68" width="28.22" height="11.21"/>
      </g>
      <polygon class="cls-1" points="14.28 11.77 15.49 10.55 15.76 12.25 17.46 11.97 16.67 13.5 18.21 14.28 16.67 15.06 17.46 16.59 15.76 16.31 15.49 18.02 14.28 16.79 13.07 18.02 12.8 16.31 11.1 16.59 11.89 15.06 10.35 14.28 11.89 13.5 11.1 11.97 12.8 12.25 13.07 10.55 14.28 11.77"/>
    </g>
  </g>
</svg>