<?xml version="1.0" encoding="UTF-8"?>
<svg id="_Шар_2" data-name="Шар 2" xmlns="http://www.w3.org/2000/svg" xmlns:xlink="http://www.w3.org/1999/xlink" viewBox="0 0 28.56 28.56">
  <defs>
    <style>
      .cls-1 {
        fill: #ffda44;
      }

      .cls-2 {
        fill: #fff;
      }

      .cls-3 {
        fill: #e2e6eb;
      }

      .cls-4 {
        clip-path: url(#clippath);
      }

      .cls-5 {
        fill: none;
      }

      .cls-6 {
        fill: #6da544;
      }

      .cls-7 {
        fill: #0052b4;
      }
    </style>
    <clipPath id="clippath">
      <circle class="cls-5" cx="14.28" cy="14.28" r="4.57"/>
    </clipPath>
  </defs>
  <g id="Capa_1" data-name="Capa 1">
    <g>
      <g>
        <path class="cls-6" d="M14.28,28.06C6.68,28.06,.5,21.88,.5,14.28S6.68,.5,14.28,.5s13.78,6.18,13.78,13.78-6.18,13.78-13.78,13.78Z"/>
        <path class="cls-3" d="M14.28,1c7.33,0,13.28,5.95,13.28,13.28s-5.95,13.28-13.28,13.28S1,21.62,1,14.28,6.95,1,14.28,1m0-1C6.41,0,0,6.41,0,14.28s6.41,14.28,14.28,14.28,14.28-6.41,14.28-14.28S22.16,0,14.28,0h0Z"/>
      </g>
      <polygon class="cls-1" points="24.66 14.28 14.28 22.17 3.91 14.28 14.28 6.4 24.66 14.28"/>
      <circle class="cls-7" cx="14.28" cy="14.28" r="4.57"/>
      <g class="cls-4">
        <path class="cls-2" d="M11.58,13.87c3.78,0,6.85,2.14,6.85,4.77,0,.24-.03,.48-.09,.72,.58-.7,.92-1.51,.92-2.38,0-2.64-3.27-4.77-7.06-4.77-3.43,0-6.06,1.76-6.55,4.06,1.18-1.43,3.39-2.4,5.93-2.4Z"/>
      </g>
    </g>
  </g>
</svg>