<?xml version="1.0" encoding="UTF-8"?>
<svg id="_Шар_2" data-name="Шар 2" xmlns="http://www.w3.org/2000/svg" viewBox="0 0 20.92 17.16">
  <defs>
    <style>
      .cls-1 {
        fill: #91c3d6;
      }
    </style>
  </defs>
  <g id="Capa_1" data-name="Capa 1">
    <g>
      <path class="cls-1" d="M20.17,17.16H.75c-.41,0-.75-.34-.75-.75v-5.71c0-.41,.34-.75,.75-.75s.75,.34,.75,.75v4.96H19.42v-4.96c0-.41,.34-.75,.75-.75s.75,.34,.75,.75v5.71c0,.41-.34,.75-.75,.75Z"/>
      <path class="cls-1" d="M10.46,11.98c-.21,0-.4-.09-.55-.24L4.88,6.39c-.28-.3-.27-.78,.03-1.06,.3-.28,.78-.27,1.06,.03l4.49,4.77,4.49-4.77c.28-.3,.76-.32,1.06-.03,.3,.28,.32,.76,.03,1.06l-5.03,5.35c-.14,.15-.34,.24-.55,.24Z"/>
      <path class="cls-1" d="M10.46,10.94c-.41,0-.75-.34-.75-.75V.75c0-.41,.34-.75,.75-.75s.75,.34,.75,.75V10.19c0,.41-.34,.75-.75,.75Z"/>
    </g>
  </g>
</svg>