<?xml version="1.0" encoding="UTF-8"?>
<svg id="_Шар_2" data-name="Шар 2" xmlns="http://www.w3.org/2000/svg" viewBox="0 0 21.79 21.79">
  <defs>
    <style>
      .cls-1 {
        fill: #91c3d6;
      }
    </style>
  </defs>
  <g id="Capa_1" data-name="Capa 1">
    <g>
      <path class="cls-1" d="m21.22,3.81c-.3-.77-.69-1.38-1.28-1.96-.58-.58-1.19-.97-1.96-1.27-.79-.31-1.61-.46-2.66-.51-1.16-.05-1.54-.06-4.43-.06s-3.27.01-4.43.06c-1.05.05-1.87.2-2.66.51-.77.3-1.38.69-1.96,1.28-.58.58-.98,1.19-1.27,1.96-.31.78-.46,1.6-.51,2.66-.05,1.16-.06,1.54-.06,4.43s.01,3.26.06,4.43c.05,1.06.21,1.88.51,2.66.3.77.69,1.38,1.27,1.96.58.58,1.19.98,1.96,1.28.78.31,1.6.46,2.66.51,1.15.05,1.5.06,4.43.06s3.27-.01,4.43-.06c1.05-.05,1.87-.2,2.66-.51.77-.3,1.38-.69,1.96-1.28.58-.58.98-1.19,1.28-1.96.31-.78.46-1.6.51-2.66.05-1.16.06-1.54.06-4.43s-.01-3.27-.06-4.43c-.05-1.06-.21-1.88-.51-2.66Zm-1.72,7.08c0,2.88-.01,3.21-.06,4.32-.05,1.02-.22,1.57-.36,1.93-.18.47-.4.81-.76,1.17-.36.36-.7.58-1.17.76-.36.14-.91.31-1.93.36-1.14.05-1.48.06-4.32.06s-3.18,0-4.32-.06c-1.02-.05-1.57-.22-1.93-.36-.47-.18-.81-.41-1.17-.76-.36-.36-.58-.69-.76-1.17-.14-.36-.31-.91-.36-1.93-.05-1.11-.06-1.44-.06-4.32s0-3.21.06-4.32c.05-1.02.21-1.57.36-1.93.18-.47.4-.81.76-1.17.36-.36.69-.58,1.17-.76.36-.14.91-.31,1.93-.36,1.11-.05,1.45-.06,4.32-.06s3.21,0,4.32.06c1.02.05,1.57.21,1.93.36.47.18.81.4,1.17.76.36.36.58.7.76,1.17.14.36.31.91.36,1.93.05,1.11.06,1.45.06,4.32Z"/>
      <path class="cls-1" d="m10.9,5.21c-3.13,0-5.68,2.55-5.68,5.68s2.55,5.68,5.68,5.68,5.68-2.55,5.68-5.68-2.55-5.68-5.68-5.68Zm3.39,5.68c0,1.87-1.52,3.39-3.39,3.39s-3.39-1.52-3.39-3.39,1.52-3.39,3.39-3.39,3.39,1.52,3.39,3.39Z"/>
      <path class="cls-1" d="m16.61,3.71c-.81,0-1.47.66-1.47,1.47s.66,1.47,1.47,1.47,1.47-.66,1.47-1.47-.66-1.47-1.47-1.47Z"/>
    </g>
  </g>
</svg>