<svg width="20" height="20" viewBox="0 0 20 20" fill="none" xmlns="http://www.w3.org/2000/svg">
<g clip-path="url(#clip0_3_2)">
<path d="M4.53807 6.50027H0.253807V19.9894H4.53807V6.50027Z" fill="#91C3D6"/>
<path d="M2.4264 0C0.964467 0 0 1.00903 0 2.32608C0 3.64312 0.93401 4.66277 2.36548 4.66277H2.39594C3.88832 4.66277 4.82233 3.62188 4.82233 2.32608C4.79188 0.998407 3.88832 0 2.4264 0Z" fill="#91C3D6"/>
<path d="M14.9543 6.18163C12.6193 6.18163 11.5838 7.48805 11.0051 8.41211V8.45459H10.9746C10.9746 8.45459 10.9949 8.42273 11.0051 8.41211V6.50027H6.61929C6.6802 7.76421 6.61929 19.9894 6.61929 19.9894H11.0051V12.4588C11.0051 12.0552 11.0355 11.6516 11.1472 11.3648C11.4619 10.5576 12.1827 9.72916 13.401 9.72916C14.9848 9.72916 15.6244 10.9719 15.6244 12.7775V20H20.0102V12.2677C20.0102 8.12533 17.8477 6.19225 14.9645 6.19225L14.9543 6.18163Z" fill="#91C3D6"/>
</g>
<defs>
<clipPath id="clip0_3_2">
<rect width="20" height="20" fill="white"/>
</clipPath>
</defs>
</svg>
