<?xml version="1.0" encoding="UTF-8"?>
<svg id="_Шар_2" data-name="Шар 2" xmlns="http://www.w3.org/2000/svg" viewBox="0 0 18.76 14.37">
  <defs>
    <style>
      .cls-1 {
        fill: #595957;
      }
    </style>
  </defs>
  <g id="Capa_1" data-name="Capa 1">
    <path class="cls-1" d="M18.16,14.37H.6c-.33,0-.6-.27-.6-.6V.6C0,.27,.27,0,.6,0H18.16c.33,0,.6,.27,.6,.6V13.77c0,.33-.27,.6-.6,.6ZM1.2,13.17H17.56V1.2H1.2V13.17Z"/>
    <path class="cls-1" d="M9.38,7.54c-.13,0-.25-.04-.36-.12L.49,1.08C.22,.88,.16,.51,.36,.24,.56-.02,.94-.08,1.2,.12L9.38,6.19,17.56,.12c.27-.2,.64-.14,.84,.12,.2,.27,.14,.64-.12,.84L9.74,7.42c-.11,.08-.23,.12-.36,.12Z"/>
  </g>
</svg>