<?xml version="1.0" encoding="UTF-8"?>
<svg id="_Шар_2" data-name="Шар 2" xmlns="http://www.w3.org/2000/svg" viewBox="0 0 21.55 21.33">
  <defs>
    <style>
      .cls-1 {
        fill: #91c3d6;
        fill-rule: evenodd;
      }
    </style>
  </defs>
  <g id="Capa_1" data-name="Capa 1">
    <g id="WA_Logo" data-name="WA Logo">
      <path class="cls-1" d="M18.41,3.1C16.39,1.1,13.69,0,10.82,0,4.91,0,.09,4.74,.09,10.57c0,1.86,.49,3.68,1.43,5.28l-1.52,5.48,5.69-1.47c1.57,.84,3.33,1.29,5.13,1.29h0c5.91,0,10.73-4.74,10.73-10.57,0-2.82-1.11-5.48-3.14-7.48Zm-7.59,16.26h0c-1.6,0-3.17-.42-4.54-1.22l-.33-.19-3.38,.87,.9-3.24-.21-.33c-.89-1.4-1.36-3.02-1.36-4.68,0-4.84,4-8.79,8.92-8.79,2.38,0,4.62,.92,6.31,2.58,1.68,1.66,2.61,3.87,2.61,6.22,0,4.84-4,8.79-8.92,8.79Zm4.89-6.58c-.27-.13-1.59-.77-1.83-.86-.25-.09-.42-.13-.6,.13-.18,.26-.69,.86-.85,1.04-.16,.18-.31,.2-.58,.07-.27-.13-1.13-.41-2.16-1.31-.8-.7-1.34-1.57-1.49-1.83-.16-.26-.02-.41,.12-.54,.12-.12,.27-.31,.4-.46,.13-.15,.18-.26,.27-.44,.09-.18,.04-.33-.02-.46s-.6-1.43-.83-1.96c-.22-.51-.44-.45-.6-.45-.16,0-.34,0-.51,0s-.47,.07-.71,.33c-.25,.26-.94,.9-.94,2.2s.96,2.56,1.09,2.73c.13,.18,1.89,2.84,4.58,3.99,.64,.27,1.14,.43,1.53,.56,.64,.2,1.23,.17,1.69,.1,.52-.08,1.59-.64,1.81-1.26,.22-.62,.22-1.15,.16-1.26-.07-.11-.25-.18-.51-.31Z"/>
    </g>
  </g>
</svg>