<?xml version="1.0" encoding="UTF-8"?>
<svg id="_Шар_2" data-name="Шар 2" xmlns="http://www.w3.org/2000/svg" viewBox="0 0 461.02 36.44">
  <defs>
    <style>
      .cls-1 {
        fill: #e2e6eb;
      }
    </style>
  </defs>
  <g id="Capa_1" data-name="Capa 1">
    <g>
      <g>
        <rect class="cls-1" x="104.19" y="7.72" width="2.16" height="21.75"/>
        <g>
          <path class="cls-1" d="m119.48,9.64l-.85.69c-.25-.54-.54-.93-.88-1.15-.34-.23-.81-.34-1.4-.34-.63,0-1.12.13-1.48.39-.36.26-.54.59-.54.99,0,.26.07.48.21.65.14.17.37.32.7.45.33.13.78.24,1.35.34,1.08.18,1.84.45,2.29.82.45.36.67.86.67,1.51,0,.46-.13.87-.39,1.22-.26.35-.63.62-1.1.82-.48.19-1.03.29-1.65.29-.82,0-1.53-.16-2.11-.48-.58-.32-1.02-.75-1.33-1.28l.85-.69c.22.49.55.86.98,1.13.43.27.97.4,1.62.4s1.15-.12,1.53-.35c.38-.23.57-.57.57-.99,0-.36-.16-.65-.49-.86-.33-.21-.91-.4-1.75-.54-1.09-.19-1.86-.46-2.31-.81-.45-.35-.68-.85-.68-1.48,0-.44.12-.84.37-1.21s.6-.66,1.06-.88c.46-.22,1-.33,1.61-.33,1.46,0,2.51.58,3.15,1.73Z"/>
          <path class="cls-1" d="m128,13.14c0,1.05-.27,1.83-.82,2.36-.55.53-1.34.8-2.38.8s-1.83-.27-2.38-.8c-.55-.54-.82-1.32-.82-2.36v-5.11h.99v4.86c0,.86.18,1.48.54,1.88.36.4.92.6,1.67.6s1.32-.2,1.67-.6c.36-.4.54-1.03.54-1.88v-4.86h.99v5.11Z"/>
          <path class="cls-1" d="m135.51,8.7c.5.45.75,1.05.75,1.81s-.25,1.36-.75,1.81c-.5.45-1.16.67-1.99.67h-1.89v3.19h-.99v-8.15h2.88c.82,0,1.49.22,1.99.67Zm-.73,2.98c.3-.26.45-.65.45-1.17s-.15-.91-.45-1.17c-.3-.26-.77-.39-1.4-.39h-1.74v3.11h1.74c.63,0,1.1-.13,1.4-.39Z"/>
          <path class="cls-1" d="m144.14,15.25v.93h-5.9v-8.15h5.72v.93h-4.73v2.63h3.68v.93h-3.68v2.74h4.91Z"/>
          <path class="cls-1" d="m149.11,12.8h-1.95v3.38h-.99v-8.15h3.09c.83,0,1.5.21,2,.64.5.43.75,1.01.75,1.74,0,.58-.16,1.06-.48,1.46-.32.4-.76.67-1.32.82l2.3,3.49h-1.17l-2.22-3.38Zm-1.95-.93h2.09c1.15,0,1.73-.49,1.73-1.46s-.58-1.46-1.73-1.46h-2.09v2.91Z"/>
          <path class="cls-1" d="m155.43,16.18h-.99v-8.15h.99v8.15Z"/>
          <path class="cls-1" d="m164.56,16.18h-1.22l-3.41-5.46-.86-1.61h-.01l.05,1.31v5.75h-.94v-8.15h1.22l3.4,5.43.88,1.63h.01l-.05-1.31v-5.75h.94v8.15Z"/>
          <path class="cls-1" d="m173.02,8.96h-2.84v7.22h-.99v-7.22h-2.84v-.93h6.67v.93Z"/>
          <path class="cls-1" d="m180.71,15.25v.93h-5.9v-8.15h5.72v.93h-4.73v2.63h3.68v.93h-3.68v2.74h4.91Z"/>
          <path class="cls-1" d="m189.14,16.18h-1.22l-3.41-5.46-.86-1.61h-.01l.05,1.31v5.75h-.94v-8.15h1.22l3.4,5.43.88,1.63h.01l-.05-1.31v-5.75h.94v8.15Z"/>
          <path class="cls-1" d="m197.51,9.09c.72.71,1.09,1.71,1.09,3.01s-.36,2.3-1.09,3.01c-.72.71-1.73,1.06-3.01,1.06h-2.63v-8.15h2.63c1.28,0,2.29.35,3.01,1.06Zm-.73,5.33c.52-.56.78-1.33.78-2.31s-.26-1.76-.78-2.32c-.52-.56-1.25-.83-2.18-.83h-1.74v6.3h1.74c.93,0,1.66-.28,2.18-.83Z"/>
          <path class="cls-1" d="m206.74,15.25v.93h-5.9v-8.15h5.72v.93h-4.73v2.63h3.68v.93h-3.68v2.74h4.91Z"/>
          <path class="cls-1" d="m215.17,16.18h-1.22l-3.41-5.46-.86-1.61h-.01l.05,1.31v5.75h-.94v-8.15h1.22l3.4,5.43.88,1.63h.01l-.05-1.31v-5.75h.94v8.15Z"/>
          <path class="cls-1" d="m223.21,15.72c-.58.39-1.26.59-2.02.59s-1.43-.17-2-.51-1.01-.83-1.31-1.46c-.31-.63-.46-1.37-.46-2.23s.15-1.59.46-2.22c.31-.63.75-1.12,1.31-1.46s1.23-.51,1.98-.51,1.44.16,1.97.48c.53.32.93.79,1.19,1.42l-.98.46c-.18-.48-.44-.84-.79-1.07-.35-.24-.79-.36-1.32-.36s-1.05.13-1.47.39c-.42.26-.75.64-.98,1.13-.23.49-.35,1.08-.35,1.75,0,1.02.24,1.82.73,2.4.49.58,1.16.87,2.01.87.55,0,1.03-.14,1.43-.42.4-.28.69-.69.86-1.23l.99.37c-.26.69-.68,1.23-1.26,1.62Z"/>
          <path class="cls-1" d="m227.42,16.18h-.99v-8.15h.99v8.15Z"/>
          <path class="cls-1" d="m234.73,13.92h-3.69l-.86,2.26h-1.04l3.17-8.15h1.17l3.16,8.15h-1.05l-.86-2.26Zm-.36-.93l-1.1-2.89-.38-1.14h-.02l-.36,1.1-1.11,2.93h2.98Z"/>
          <path class="cls-1" d="m247.78,9.09c.72.71,1.09,1.71,1.09,3.01s-.36,2.3-1.09,3.01c-.72.71-1.73,1.06-3.01,1.06h-2.63v-8.15h2.63c1.28,0,2.29.35,3.01,1.06Zm-.73,5.33c.52-.56.78-1.33.78-2.31s-.26-1.76-.78-2.32c-.52-.56-1.25-.83-2.18-.83h-1.74v6.3h1.74c.93,0,1.66-.28,2.18-.83Z"/>
          <path class="cls-1" d="m257,15.25v.93h-5.9v-8.15h5.72v.93h-4.73v2.63h3.68v.93h-3.68v2.74h4.91Z"/>
          <path class="cls-1" d="m119.48,22.81l-.85.69c-.25-.54-.54-.93-.88-1.15-.34-.23-.81-.34-1.4-.34-.63,0-1.12.13-1.48.39-.36.26-.54.59-.54.99,0,.26.07.48.21.65.14.17.37.32.7.45.33.13.78.24,1.35.34,1.08.18,1.84.45,2.29.81.45.36.67.86.67,1.51,0,.46-.13.87-.39,1.22-.26.35-.63.62-1.1.82-.48.19-1.03.29-1.65.29-.82,0-1.53-.16-2.11-.48-.58-.32-1.02-.75-1.33-1.28l.85-.69c.22.49.55.86.98,1.13.43.27.97.4,1.62.4s1.15-.12,1.53-.35c.38-.23.57-.57.57-.99,0-.36-.16-.65-.49-.86-.33-.21-.91-.4-1.75-.54-1.09-.19-1.86-.46-2.31-.81-.45-.35-.68-.85-.68-1.48,0-.44.12-.84.37-1.21s.6-.66,1.06-.88c.46-.22,1-.33,1.61-.33,1.46,0,2.51.58,3.15,1.73Z"/>
          <path class="cls-1" d="m127.28,28.42v.93h-5.9v-8.15h5.72v.93h-4.73v2.63h3.68v.93h-3.68v2.74h4.91Z"/>
          <path class="cls-1" d="m135.46,25.24v4.11h-.74l-.04-1.1c-.24.4-.57.7-1.01.91-.43.21-.95.31-1.56.31-.77,0-1.43-.17-2-.51-.57-.34-1.01-.83-1.31-1.46-.31-.63-.46-1.37-.46-2.23s.16-1.59.48-2.22c.32-.63.76-1.12,1.33-1.46.57-.34,1.24-.51,1.99-.51.81,0,1.47.15,1.99.46.52.3.94.77,1.27,1.41l-.9.49c-.18-.46-.47-.82-.88-1.06-.41-.25-.9-.37-1.48-.37s-1.04.13-1.45.4c-.42.26-.74.64-.97,1.13-.23.49-.35,1.07-.35,1.75,0,1.04.24,1.84.72,2.41.48.57,1.16.86,2.06.86.71,0,1.29-.18,1.73-.54.45-.36.67-.88.67-1.56v-.28h-2.59v-.93h3.49Z"/>
          <path class="cls-1" d="m143.83,26.31c0,1.05-.27,1.83-.82,2.36-.55.53-1.34.8-2.38.8s-1.83-.27-2.38-.8c-.55-.54-.82-1.32-.82-2.36v-5.11h.99v4.86c0,.86.18,1.48.54,1.88.36.4.92.6,1.67.6s1.32-.2,1.67-.6c.36-.4.54-1.03.54-1.88v-4.86h.99v5.11Z"/>
          <path class="cls-1" d="m149.1,25.97h-1.95v3.38h-.99v-8.15h3.09c.83,0,1.5.21,2,.64.5.43.75,1.01.75,1.74,0,.58-.16,1.06-.48,1.46-.32.4-.76.67-1.32.82l2.3,3.49h-1.17l-2.22-3.38Zm-1.95-.93h2.09c1.15,0,1.73-.49,1.73-1.46s-.58-1.46-1.73-1.46h-2.09v2.91Z"/>
          <path class="cls-1" d="m159.34,21.59c.57.34,1.01.83,1.32,1.46.31.63.46,1.37.46,2.23s-.15,1.6-.46,2.23c-.31.63-.75,1.12-1.32,1.46-.57.34-1.24.51-2,.51s-1.43-.17-2-.51c-.57-.34-1.01-.83-1.31-1.46-.31-.63-.46-1.37-.46-2.23s.15-1.6.46-2.23c.31-.63.75-1.12,1.31-1.46.57-.34,1.24-.51,2-.51s1.43.17,2,.51Zm-4.01,1.28c-.49.58-.73,1.38-.73,2.4s.24,1.82.73,2.4c.49.58,1.16.87,2.01.87s1.52-.29,2.01-.87c.49-.58.73-1.38.73-2.4s-.25-1.82-.73-2.4-1.16-.87-2.01-.87-1.52.29-2.01.87Z"/>
          <path class="cls-1" d="m168.81,22.81l-.85.69c-.25-.54-.54-.93-.88-1.15-.34-.23-.81-.34-1.4-.34-.62,0-1.12.13-1.48.39-.36.26-.54.59-.54.99,0,.26.07.48.21.65.14.17.37.32.7.45.33.13.78.24,1.35.34,1.08.18,1.84.45,2.29.81.45.36.67.86.67,1.51,0,.46-.13.87-.39,1.22-.26.35-.63.62-1.1.82-.48.19-1.03.29-1.65.29-.82,0-1.53-.16-2.11-.48-.58-.32-1.02-.75-1.33-1.28l.85-.69c.22.49.55.86.98,1.13.43.27.97.4,1.62.4s1.15-.12,1.53-.35c.38-.23.57-.57.57-.99,0-.36-.16-.65-.49-.86-.33-.21-.91-.4-1.75-.54-1.09-.19-1.86-.46-2.31-.81-.45-.35-.68-.85-.68-1.48,0-.44.12-.84.37-1.21.25-.37.6-.66,1.06-.88.46-.22,1-.33,1.61-.33,1.46,0,2.51.58,3.15,1.73Z"/>
          <path class="cls-1" d="m180.31,22.26c.72.71,1.09,1.71,1.09,3.01s-.36,2.3-1.09,3.01c-.72.71-1.73,1.06-3.01,1.06h-2.63v-8.15h2.63c1.28,0,2.29.35,3.01,1.06Zm-.73,5.33c.52-.56.78-1.33.78-2.31s-.26-1.76-.78-2.32c-.52-.56-1.25-.83-2.18-.83h-1.74v6.3h1.74c.93,0,1.66-.28,2.18-.83Z"/>
          <path class="cls-1" d="m189.23,28.42v.93h-5.9v-8.15h5.72v.93h-4.73v2.63h3.68v.93h-3.68v2.74h4.91Z"/>
          <path class="cls-1" d="m200.57,28.42v.93h-5.65v-8.15h.99v7.22h4.67Z"/>
          <path class="cls-1" d="m206.64,27.09h-3.69l-.86,2.26h-1.04l3.17-8.15h1.17l3.16,8.15h-1.05l-.86-2.26Zm-.36-.93l-1.1-2.89-.38-1.14h-.02l-.36,1.1-1.11,2.93h2.98Z"/>
          <path class="cls-1" d="m219.82,29.35h-1.22l-3.41-5.46-.86-1.61h-.01l.05,1.31v5.75h-.94v-8.15h1.22l3.4,5.43.88,1.63h.01l-.05-1.31v-5.75h.94v8.15Z"/>
          <path class="cls-1" d="m226.82,27.09h-3.69l-.86,2.26h-1.04l3.17-8.15h1.17l3.16,8.15h-1.05l-.86-2.26Zm-.36-.93l-1.1-2.89-.38-1.14h-.02l-.36,1.1-1.11,2.93h2.98Z"/>
          <path class="cls-1" d="m235.18,28.89c-.58.39-1.26.59-2.02.59s-1.43-.17-2-.51-1.01-.83-1.31-1.46c-.31-.63-.46-1.37-.46-2.23s.15-1.59.46-2.22c.31-.63.75-1.12,1.31-1.46.57-.34,1.23-.51,1.98-.51s1.44.16,1.97.48c.53.32.93.79,1.19,1.42l-.98.46c-.18-.48-.44-.84-.79-1.07-.35-.24-.79-.36-1.32-.36s-1.05.13-1.47.39c-.42.26-.75.64-.98,1.13-.23.49-.35,1.08-.35,1.75,0,1.02.24,1.82.73,2.4.49.58,1.16.87,2.01.87.55,0,1.03-.14,1.43-.42.4-.28.69-.69.86-1.23l.99.37c-.26.69-.68,1.23-1.26,1.62Z"/>
          <path class="cls-1" d="m239.08,29.35h-.99v-8.15h.99v8.15Z"/>
          <path class="cls-1" d="m246.79,21.59c.57.34,1.01.83,1.32,1.46.31.63.46,1.37.46,2.23s-.15,1.6-.46,2.23c-.31.63-.75,1.12-1.32,1.46s-1.24.51-2,.51-1.43-.17-2-.51-1.01-.83-1.31-1.46c-.31-.63-.46-1.37-.46-2.23s.15-1.6.46-2.23c.31-.63.75-1.12,1.31-1.46.57-.34,1.24-.51,2-.51s1.43.17,2,.51Zm-4.01,1.28c-.49.58-.73,1.38-.73,2.4s.24,1.82.73,2.4c.49.58,1.16.87,2.01.87s1.52-.29,2.01-.87c.49-.58.73-1.38.73-2.4s-.25-1.82-.73-2.4-1.16-.87-2.01-.87-1.52.29-2.01.87Zm3.35-4.52l-1.06,1.83h-.8l.7-1.83h1.16Z"/>
          <path class="cls-1" d="m256.89,29.35h-1.22l-3.41-5.46-.86-1.61h-.01l.05,1.31v5.75h-.94v-8.15h1.22l3.4,5.43.88,1.63h.01l-.05-1.31v-5.75h.94v8.15Z"/>
        </g>
        <g>
          <path class="cls-1" d="m58.5,20.38c-.52-.79-1.35-1.45-2.49-1.99-1.14-.53-2.68-.97-4.61-1.32-2.06-.37-3.5-.81-4.3-1.32-.8-.51-1.2-1.2-1.2-2.07,0-.48.11-.92.33-1.31,0,0,.02-.04.03-.06.2-.34.33-.51.86-.95.53-.43,1.81-.87,3.77-.87,4.1,0,5.49,3.03,5.49,3.03l2.56-1.56c-.72-1.73-3.32-4.47-8.06-4.47-2.03,0-3.61.33-4.74.88-.87.4-1.53.82-2.11,1.38-.94.89-1.3,1.77-1.39,2.05-.29.7-.43,1.44-.43,2.24,0,1.15.27,2.13.8,2.93.53.8,1.38,1.48,2.56,2.02,1.17.54,2.75,1,4.72,1.37,1.98.37,3.36.79,4.15,1.27.79.48,1.19,1.11,1.19,1.89,0,.45-.1.86-.29,1.22,0,0-.03.04-.06.11-.22.36-.54.68-.97.94-.08.05-.17.09-.25.14-.62.3-1.53.56-2.88.65-.16,0-.49.03-.49.03-.2,0-.41.01-.63.01-4.1,0-5.02-2.16-5.71-3.23-.76.4-2.56,1.56-2.56,1.56,1.28,2.29,3.44,4.68,8.28,4.68h.66c1.69,0,3.19-.26,4.48-.77.99-.39,1.81-.92,2.47-1.57.73-.7,1.06-1.38,1.2-1.76.28-.67.42-1.4.42-2.19,0-1.17-.26-2.15-.78-2.95Z"/>
          <path class="cls-1" d="m77.36,20.38c-.52-.79-1.35-1.45-2.49-1.99-1.14-.53-2.68-.97-4.61-1.32-2.06-.37-3.5-.81-4.3-1.32-.8-.51-1.2-1.2-1.2-2.07,0-.48.11-.92.33-1.31,0,0,.02-.04.03-.06.2-.34.33-.51.86-.95.53-.43,1.81-.87,3.77-.87,4.1,0,5.49,3.03,5.49,3.03l2.56-1.56c-.72-1.73-3.32-4.47-8.06-4.47-2.03,0-3.61.33-4.74.88-.87.4-1.53.82-2.11,1.38-.94.89-1.3,1.77-1.39,2.05-.29.7-.43,1.44-.43,2.24,0,1.15.27,2.13.8,2.93.53.8,1.38,1.48,2.56,2.02,1.17.54,2.75,1,4.72,1.37,1.98.37,3.36.79,4.15,1.27.79.48,1.19,1.11,1.19,1.89,0,.45-.1.86-.29,1.22,0,0-.03.04-.06.11-.22.36-.54.68-.97.94-.08.05-.17.09-.25.14-.62.3-1.53.56-2.88.65-.16,0-.49.03-.49.03-.2,0-.41.01-.63.01-4.1,0-5.02-2.16-5.71-3.23-.76.4-2.56,1.56-2.56,1.56,1.28,2.29,3.44,4.68,8.28,4.68h.66c1.69,0,3.19-.26,4.48-.77.99-.39,1.81-.92,2.47-1.57.73-.7,1.06-1.38,1.2-1.76.28-.67.42-1.4.42-2.19,0-1.17-.26-2.15-.78-2.95Z"/>
          <polygon class="cls-1" points="94.35 7.8 94.35 21.67 94.48 25.31 94.45 25.31 92.33 21.31 84.06 7.8 79.96 7.8 79.96 29.29 83.15 29.29 83.15 15.41 83.02 11.77 83.05 11.77 85.14 15.74 93.44 29.29 97.57 29.29 97.57 7.8 94.35 7.8"/>
        </g>
        <g>
          <path class="cls-1" d="m18.22,0C8.16,0,0,8.16,0,18.22s8.16,18.22,18.22,18.22,18.22-8.16,18.22-18.22S28.28,0,18.22,0Zm0,34.6c-9.05,0-16.38-7.33-16.38-16.38S9.17,1.84,18.22,1.84s16.38,7.33,16.38,16.38-7.33,16.38-16.38,16.38Z"/>
          <path class="cls-1" d="m7.32,26.85c.89,1.12,1.95,2.11,3.14,2.91,2.12-.7,4.68-1.16,7.76-1.16s5.64.46,7.75,1.16c1.19-.8,2.25-1.79,3.14-2.91-2.52-2.25-6.04-4.01-10.89-4.01s-8.38,1.75-10.9,4.01Z"/>
          <path class="cls-1" d="m30.35,25.02c.83-1.47,1.39-3.11,1.64-4.85-2.32-3.04-6.44-5.69-13.76-5.69s-11.45,2.65-13.77,5.69c.24,1.74.81,3.38,1.64,4.86,2.99-2.11,7.23-4.25,12.14-4.25s9.13,2.14,12.11,4.25Z"/>
          <path class="cls-1" d="m32.08,17.17c-.14-1.82-.62-3.54-1.39-5.1-2.54-3.09-6.48-5.8-12.47-5.8s-9.93,2.72-12.47,5.8c-.77,1.56-1.25,3.28-1.39,5.09,2.49-2.29,6.82-4.8,13.86-4.8s11.37,2.51,13.86,4.8Z"/>
        </g>
      </g>
      <g>
        <path class="cls-1" d="m282.66,16.01c-.34-.23-.61-.56-.81-.99-.2-.43-.3-.94-.3-1.54s.1-1.1.3-1.54c.2-.43.47-.76.81-.99.34-.23.74-.34,1.18-.34s.83.11,1.17.34c.34.23.61.56.81.99s.3.94.3,1.54-.1,1.1-.3,1.54c-.2.43-.47.76-.81.99-.34.23-.73.34-1.17.34s-.84-.11-1.18-.34Zm2.26-.92c.27-.37.4-.9.4-1.6s-.13-1.23-.4-1.6c-.27-.37-.63-.55-1.08-.55s-.81.18-1.08.55c-.27.37-.4.9-.4,1.6s.13,1.23.4,1.6c.27.37.63.55,1.08.55s.81-.18,1.08-.55Z"/>
        <path class="cls-1" d="m291.17,13.88c.17.23.26.5.26.82s-.09.63-.27.88c-.18.25-.44.44-.78.57-.34.13-.73.2-1.18.2s-.84-.07-1.17-.2c-.33-.13-.59-.32-.77-.57-.18-.25-.27-.54-.27-.88s.08-.59.25-.82c.17-.23.41-.41.73-.53-.26-.12-.45-.29-.58-.49-.13-.2-.2-.44-.2-.72,0-.31.08-.58.25-.81s.4-.41.71-.53c.3-.12.66-.18,1.06-.18s.76.06,1.07.18c.31.12.54.3.71.53s.25.5.25.81c0,.27-.07.51-.2.72s-.33.37-.59.49c.32.12.56.3.74.53Zm-.93,1.55c.26-.18.38-.43.38-.75s-.13-.55-.38-.73c-.26-.18-.61-.27-1.05-.27s-.79.09-1.04.27c-.25.18-.38.42-.38.73s.13.56.38.75c.25.18.6.28,1.04.28s.79-.09,1.05-.28Zm-1.94-3.91c-.22.16-.33.38-.33.66s.11.5.32.66.52.24.9.24.69-.08.92-.24.33-.38.33-.66-.11-.5-.34-.66c-.23-.16-.53-.24-.91-.24s-.68.08-.9.24Z"/>
        <path class="cls-1" d="m293.39,16.01c-.34-.23-.61-.56-.81-.99-.2-.43-.3-.94-.3-1.54s.1-1.1.3-1.54c.2-.43.47-.76.81-.99.34-.23.74-.34,1.18-.34s.83.11,1.17.34c.34.23.61.56.81.99s.3.94.3,1.54-.1,1.1-.3,1.54c-.2.43-.47.76-.81.99-.34.23-.73.34-1.17.34s-.84-.11-1.18-.34Zm2.26-.92c.27-.37.4-.9.4-1.6s-.13-1.23-.4-1.6c-.27-.37-.63-.55-1.08-.55s-.81.18-1.08.55c-.27.37-.4.9-.4,1.6s.13,1.23.4,1.6c.27.37.63.55,1.08.55s.81-.18,1.08-.55Z"/>
        <path class="cls-1" d="m298.85,16.01c-.34-.23-.61-.56-.81-.99-.2-.43-.3-.94-.3-1.54s.1-1.1.3-1.54c.2-.43.47-.76.81-.99.34-.23.74-.34,1.18-.34s.83.11,1.17.34c.34.23.61.56.81.99.2.43.3.94.3,1.54s-.1,1.1-.3,1.54c-.2.43-.47.76-.81.99-.34.23-.73.34-1.17.34s-.84-.11-1.18-.34Zm2.26-.92c.27-.37.4-.9.4-1.6s-.13-1.23-.4-1.6c-.27-.37-.63-.55-1.08-.55s-.81.18-1.08.55c-.27.37-.4.9-.4,1.6s.13,1.23.4,1.6c.27.37.63.55,1.08.55s.81-.18,1.08-.55Z"/>
        <path class="cls-1" d="m303.32,13.76h2.15v.66h-2.15v-.66Z"/>
        <path class="cls-1" d="m309.89,13.09c.29.14.52.34.68.6.17.26.25.56.25.89,0,.35-.09.66-.26.93-.17.27-.41.47-.71.62-.3.15-.64.22-1.01.22-.75,0-1.33-.24-1.74-.73-.41-.49-.61-1.17-.61-2.06,0-.62.11-1.16.33-1.6.22-.44.53-.77.93-1,.4-.23.86-.34,1.39-.34.27,0,.53.03.77.08.24.06.45.14.62.24l-.3.62c-.27-.18-.62-.26-1.07-.26-.58,0-1.04.18-1.37.54-.33.36-.5.88-.5,1.57,0,.09,0,.15,0,.2.16-.24.38-.42.66-.55.28-.12.6-.19.95-.19s.7.07.99.21Zm-.19,2.31c.23-.2.34-.46.34-.79s-.12-.59-.35-.79c-.23-.19-.54-.29-.93-.29-.25,0-.47.05-.67.14-.19.1-.35.23-.46.39s-.16.35-.16.55.05.38.16.54.26.29.46.39c.2.1.44.15.72.15.37,0,.67-.1.9-.3Z"/>
        <path class="cls-1" d="m314.95,13.09c.29.14.52.34.68.6.17.26.25.56.25.89,0,.35-.09.66-.26.93-.17.27-.41.47-.71.62-.3.15-.64.22-1.01.22-.75,0-1.33-.24-1.74-.73-.41-.49-.61-1.17-.61-2.06,0-.62.11-1.16.33-1.6.22-.44.53-.77.93-1,.4-.23.86-.34,1.39-.34.27,0,.53.03.77.08.24.06.45.14.62.24l-.3.62c-.27-.18-.62-.26-1.07-.26-.58,0-1.04.18-1.37.54-.33.36-.5.88-.5,1.57,0,.09,0,.15,0,.2.16-.24.38-.42.66-.55.28-.12.6-.19.95-.19s.7.07.99.21Zm-.19,2.31c.23-.2.34-.46.34-.79s-.12-.59-.35-.79c-.23-.19-.54-.29-.93-.29-.25,0-.47.05-.67.14-.19.1-.35.23-.46.39s-.16.35-.16.55.05.38.16.54.26.29.46.39c.2.1.44.15.72.15.37,0,.67-.1.9-.3Z"/>
        <path class="cls-1" d="m320.01,13.09c.29.14.52.34.68.6.17.26.25.56.25.89,0,.35-.09.66-.26.93-.17.27-.41.47-.71.62-.3.15-.64.22-1.01.22-.75,0-1.33-.24-1.74-.73-.41-.49-.61-1.17-.61-2.06,0-.62.11-1.16.33-1.6.22-.44.53-.77.93-1,.4-.23.86-.34,1.39-.34.27,0,.53.03.77.08.24.06.45.14.62.24l-.3.62c-.27-.18-.62-.26-1.07-.26-.58,0-1.04.18-1.37.54-.33.36-.5.88-.5,1.57,0,.09,0,.15,0,.2.16-.24.38-.42.66-.55.28-.12.6-.19.95-.19s.7.07.99.21Zm-.19,2.31c.23-.2.34-.46.34-.79s-.12-.59-.35-.79c-.23-.19-.54-.29-.93-.29-.25,0-.47.05-.67.14-.19.1-.35.23-.46.39s-.16.35-.16.55.05.38.16.54.26.29.46.39c.2.1.44.15.72.15.37,0,.67-.1.9-.3Z"/>
        <path class="cls-1" d="m321.77,13.76h2.15v.66h-2.15v-.66Z"/>
        <path class="cls-1" d="m329.04,13.88c.17.23.26.5.26.82s-.09.63-.27.88c-.18.25-.44.44-.78.57-.34.13-.73.2-1.18.2s-.84-.07-1.17-.2c-.33-.13-.59-.32-.77-.57-.18-.25-.27-.54-.27-.88s.08-.59.25-.82.41-.41.73-.53c-.26-.12-.45-.29-.58-.49-.13-.2-.2-.44-.2-.72,0-.31.08-.58.25-.81s.4-.41.71-.53c.3-.12.66-.18,1.06-.18s.76.06,1.07.18c.31.12.54.3.71.53s.25.5.25.81c0,.27-.07.51-.2.72s-.33.37-.59.49c.32.12.56.3.74.53Zm-.93,1.55c.26-.18.38-.43.38-.75s-.13-.55-.38-.73c-.26-.18-.61-.27-1.05-.27s-.79.09-1.04.27c-.25.18-.38.42-.38.73s.13.56.38.75c.25.18.6.28,1.04.28s.79-.09,1.05-.28Zm-1.94-3.91c-.22.16-.33.38-.33.66s.11.5.32.66.52.24.9.24.69-.08.92-.24.33-.38.33-.66-.11-.5-.34-.66c-.23-.16-.53-.24-.91-.24s-.68.08-.9.24Z"/>
        <path class="cls-1" d="m335.03,14.91h-1.06v1.38h-.78v-1.38h-3.11v-.56l2.86-3.66h.86l-2.74,3.54h2.15v-1.22h.75v1.22h1.06v.69Z"/>
        <path class="cls-1" d="m336.73,16.01c-.34-.23-.61-.56-.81-.99-.2-.43-.3-.94-.3-1.54s.1-1.1.3-1.54c.2-.43.47-.76.81-.99.34-.23.74-.34,1.18-.34s.83.11,1.17.34c.34.23.61.56.81.99s.3.94.3,1.54-.1,1.1-.3,1.54c-.2.43-.47.76-.81.99-.34.23-.73.34-1.17.34s-.84-.11-1.18-.34Zm2.26-.92c.27-.37.4-.9.4-1.6s-.13-1.23-.4-1.6c-.27-.37-.63-.55-1.08-.55s-.81.18-1.08.55c-.27.37-.4.9-.4,1.6s.13,1.23.4,1.6c.27.37.63.55,1.08.55s.81-.18,1.08-.55Z"/>
        <path class="cls-1" d="m342.19,16.01c-.34-.23-.61-.56-.81-.99-.2-.43-.3-.94-.3-1.54s.1-1.1.3-1.54c.2-.43.47-.76.81-.99.34-.23.74-.34,1.18-.34s.83.11,1.17.34c.34.23.61.56.81.99s.3.94.3,1.54-.1,1.1-.3,1.54c-.2.43-.47.76-.81.99-.34.23-.73.34-1.17.34s-.84-.11-1.18-.34Zm2.26-.92c.27-.37.4-.9.4-1.6s-.13-1.23-.4-1.6c-.27-.37-.63-.55-1.08-.55s-.81.18-1.08.55c-.27.37-.4.9-.4,1.6s.13,1.23.4,1.6c.27.37.63.55,1.08.55s.81-.18,1.08-.55Z"/>
        <path class="cls-1" d="m349.27,10.35h.71v7.49h-.71v-7.49Z"/>
        <path class="cls-1" d="m360.35,12.04l-1.58,4.24h-.74l-1.22-3.22-1.24,3.22h-.74l-1.58-4.24h.73l1.23,3.38,1.28-3.38h.65l1.26,3.39,1.26-3.39h.69Z"/>
        <path class="cls-1" d="m367.6,12.04l-1.58,4.24h-.74l-1.22-3.22-1.24,3.22h-.74l-1.58-4.24h.73l1.23,3.38,1.28-3.38h.65l1.26,3.39,1.26-3.39h.69Z"/>
        <path class="cls-1" d="m374.85,12.04l-1.58,4.24h-.74l-1.22-3.22-1.24,3.22h-.74l-1.58-4.24h.73l1.23,3.38,1.28-3.38h.65l1.26,3.39,1.26-3.39h.69Z"/>
        <path class="cls-1" d="m375.28,16.18c-.11-.1-.16-.24-.16-.4s.05-.28.16-.39c.11-.1.23-.16.38-.16s.27.05.38.15c.1.1.15.23.15.39s-.05.29-.16.4c-.1.1-.23.16-.37.16s-.28-.05-.38-.16Z"/>
        <path class="cls-1" d="m380.39,12.44c.31.29.47.72.47,1.29v2.56h-.73v-.56c-.13.2-.31.35-.55.45-.24.1-.52.16-.84.16-.47,0-.85-.11-1.14-.34-.29-.23-.43-.53-.43-.9s.14-.67.41-.9.7-.34,1.3-.34h1.22v-.15c0-.33-.1-.58-.29-.76-.19-.18-.48-.26-.85-.26-.25,0-.5.04-.74.12-.24.08-.44.19-.61.33l-.32-.58c.22-.18.48-.31.78-.4.3-.09.63-.14.97-.14.59,0,1.04.14,1.35.43Zm-.76,3.11c.21-.13.37-.32.46-.56v-.59h-1.18c-.65,0-.98.22-.98.66,0,.21.08.38.25.5.17.12.39.18.69.18s.55-.07.76-.2Z"/>
        <path class="cls-1" d="m383.73,12.2c.26-.13.58-.19.95-.19v.74s-.1,0-.18,0c-.42,0-.74.12-.98.37s-.36.6-.36,1.06v2.11h-.77v-4.24h.74v.71c.13-.25.33-.43.59-.56Z"/>
        <path class="cls-1" d="m389.76,12.04v3.66c0,.74-.18,1.29-.55,1.64-.37.35-.92.53-1.65.53-.4,0-.78-.05-1.14-.16s-.66-.26-.88-.47l.37-.59c.2.17.44.31.73.4.29.1.59.15.9.15.5,0,.86-.12,1.1-.35.24-.24.36-.59.36-1.07v-.34c-.18.22-.4.38-.67.49-.26.11-.55.16-.86.16-.41,0-.77-.09-1.1-.26-.33-.17-.59-.42-.77-.73-.19-.31-.28-.67-.28-1.07s.09-.76.28-1.07c.19-.31.44-.55.77-.72.33-.17.69-.26,1.1-.26.32,0,.62.06.89.18.27.12.5.29.68.52v-.66h.73Zm-1.46,3.22c.22-.12.39-.28.52-.49.12-.21.19-.45.19-.72,0-.41-.14-.74-.41-1-.27-.25-.62-.38-1.05-.38s-.78.13-1.06.38c-.27.25-.41.58-.41,1,0,.27.06.51.19.72.13.21.3.37.52.49.22.12.47.18.76.18s.53-.06.75-.18Z"/>
        <path class="cls-1" d="m395.16,14.42h-3.44c.05.37.21.67.49.9.28.23.63.34,1.04.34.51,0,.91-.17,1.22-.51l.42.5c-.19.22-.43.39-.72.51-.29.12-.6.18-.96.18-.45,0-.85-.09-1.19-.28-.35-.18-.61-.44-.8-.77-.19-.33-.28-.7-.28-1.12s.09-.78.28-1.11c.18-.33.44-.59.76-.77.32-.18.69-.28,1.09-.28s.77.09,1.08.28c.32.18.57.44.74.77.18.33.27.71.27,1.14,0,.06,0,.14-.02.23Zm-3-1.43c-.25.22-.39.52-.44.88h2.72c-.04-.36-.19-.65-.44-.88s-.56-.34-.92-.34-.68.11-.92.34Z"/>
        <path class="cls-1" d="m399.91,12.47c.32.31.48.77.48,1.37v2.44h-.77v-2.35c0-.41-.1-.72-.3-.93s-.48-.31-.85-.31c-.42,0-.74.12-.98.36-.24.24-.36.59-.36,1.04v2.18h-.77v-4.24h.74v.64c.15-.22.36-.39.63-.5.26-.12.56-.18.9-.18.54,0,.97.16,1.28.47Z"/>
        <path class="cls-1" d="m404.31,16.04c-.11.1-.25.17-.42.22-.17.05-.34.08-.51.08-.43,0-.76-.11-.99-.34s-.35-.56-.35-.98v-2.33h-.72v-.63h.72v-.93h.77v.93h1.22v.63h-1.22v2.3c0,.23.06.41.17.53.11.12.28.18.49.18.23,0,.43-.07.6-.2l.24.55Z"/>
        <path class="cls-1" d="m405.37,11.08c-.1-.1-.15-.21-.15-.35s.05-.26.15-.36c.1-.1.22-.15.37-.15s.27.05.37.14c.1.09.15.21.15.35s-.05.27-.15.36-.22.15-.37.15-.27-.05-.37-.14Zm-.01.96h.77v4.24h-.77v-4.24Z"/>
        <path class="cls-1" d="m411.26,12.47c.32.31.48.77.48,1.37v2.44h-.77v-2.35c0-.41-.1-.72-.3-.93s-.48-.31-.85-.31c-.42,0-.74.12-.98.36-.24.24-.36.59-.36,1.04v2.18h-.77v-4.24h.74v.64c.15-.22.36-.39.63-.5.26-.12.56-.18.9-.18.54,0,.97.16,1.28.47Z"/>
        <path class="cls-1" d="m416.17,12.44c.31.29.47.72.47,1.29v2.56h-.73v-.56c-.13.2-.31.35-.55.45-.24.1-.52.16-.84.16-.47,0-.85-.11-1.14-.34-.29-.23-.43-.53-.43-.9s.14-.67.41-.9.7-.34,1.3-.34h1.22v-.15c0-.33-.1-.58-.29-.76-.19-.18-.48-.26-.85-.26-.25,0-.5.04-.74.12-.24.08-.44.19-.61.33l-.32-.58c.22-.18.48-.31.78-.4.3-.09.63-.14.97-.14.59,0,1.04.14,1.35.43Zm-.76,3.11c.21-.13.37-.32.46-.56v-.59h-1.18c-.65,0-.98.22-.98.66,0,.21.08.38.25.5.17.12.39.18.69.18s.55-.07.76-.2Z"/>
        <path class="cls-1" d="m417.99,16.18c-.11-.1-.16-.24-.16-.4s.05-.28.16-.39c.11-.1.23-.16.38-.16s.27.05.38.15c.1.1.15.23.15.39s-.05.29-.16.4c-.1.1-.23.16-.37.16s-.28-.05-.38-.16Z"/>
        <path class="cls-1" d="m424.08,12.04v3.66c0,.74-.18,1.29-.55,1.64-.37.35-.92.53-1.65.53-.4,0-.78-.05-1.14-.16s-.66-.26-.88-.47l.37-.59c.2.17.44.31.73.4.29.1.59.15.9.15.5,0,.86-.12,1.1-.35.24-.24.36-.59.36-1.07v-.34c-.18.22-.4.38-.67.49-.26.11-.55.16-.86.16-.41,0-.77-.09-1.1-.26-.33-.17-.59-.42-.77-.73-.19-.31-.28-.67-.28-1.07s.09-.76.28-1.07c.19-.31.44-.55.77-.72.33-.17.69-.26,1.1-.26.32,0,.62.06.89.18.27.12.5.29.68.52v-.66h.73Zm-1.46,3.22c.22-.12.39-.28.52-.49.12-.21.19-.45.19-.72,0-.41-.14-.74-.41-1-.27-.25-.62-.38-1.05-.38s-.78.13-1.06.38c-.27.25-.41.58-.41,1,0,.27.06.51.19.72.13.21.3.37.52.49.22.12.47.18.76.18s.53-.06.75-.18Z"/>
        <path class="cls-1" d="m426.35,16.05c-.34-.19-.6-.44-.79-.77-.19-.33-.28-.7-.28-1.12s.09-.79.28-1.12c.19-.33.45-.58.79-.77.34-.18.71-.28,1.14-.28s.8.09,1.13.28c.33.18.59.44.78.77s.28.7.28,1.12-.09.79-.28,1.12-.45.58-.78.77c-.33.19-.71.28-1.13.28s-.8-.09-1.14-.28Zm1.87-.58c.22-.13.39-.3.51-.53.12-.23.18-.49.18-.78s-.06-.55-.18-.78c-.12-.23-.29-.4-.51-.52-.22-.12-.46-.18-.73-.18s-.52.06-.73.18-.39.3-.51.52c-.12.23-.19.49-.19.78s.06.55.19.78c.13.23.3.4.51.53.22.12.46.19.73.19s.52-.06.73-.19Z"/>
        <path class="cls-1" d="m434.22,12.28c.33.18.58.43.76.76.18.33.28.7.28,1.13s-.09.8-.28,1.13c-.18.33-.44.58-.76.76-.33.18-.69.27-1.1.27-.31,0-.6-.06-.86-.18-.26-.12-.48-.3-.65-.54v.67h-.74v-5.94h.77v2.34c.17-.22.38-.39.64-.51.26-.11.54-.17.84-.17.41,0,.78.09,1.1.27Zm-.44,3.2c.22-.13.39-.3.51-.53.13-.23.19-.49.19-.78s-.06-.55-.19-.78c-.12-.23-.3-.4-.51-.52s-.46-.18-.73-.18-.51.06-.73.18-.39.3-.51.52c-.12.23-.18.49-.18.78s.06.55.18.78.29.4.51.53c.22.12.46.19.73.19s.52-.06.73-.19Z"/>
        <path class="cls-1" d="m436.15,16.18c-.11-.1-.16-.24-.16-.4s.05-.28.16-.39c.11-.1.23-.16.38-.16s.27.05.38.15c.1.1.15.23.15.39s-.05.29-.16.4c-.1.1-.23.16-.37.16s-.28-.05-.38-.16Z"/>
        <path class="cls-1" d="m441.25,12.44c.31.29.47.72.47,1.29v2.56h-.73v-.56c-.13.2-.31.35-.55.45-.24.1-.52.16-.84.16-.47,0-.85-.11-1.14-.34-.29-.23-.43-.53-.43-.9s.14-.67.41-.9.7-.34,1.3-.34h1.22v-.15c0-.33-.1-.58-.29-.76-.19-.18-.48-.26-.85-.26-.25,0-.5.04-.74.12-.24.08-.44.19-.61.33l-.32-.58c.22-.18.48-.31.78-.4.3-.09.63-.14.97-.14.59,0,1.04.14,1.35.43Zm-.76,3.11c.21-.13.37-.32.46-.56v-.59h-1.18c-.65,0-.98.22-.98.66,0,.21.08.38.25.5.17.12.39.18.69.18s.55-.07.76-.2Z"/>
        <path class="cls-1" d="m444.59,12.2c.26-.13.58-.19.95-.19v.74s-.1,0-.18,0c-.42,0-.74.12-.98.37s-.36.6-.36,1.06v2.11h-.77v-4.24h.74v.71c.13-.25.33-.43.59-.56Z"/>
        <path class="cls-1" d="m448.03,9.55h.7l-2.64,7.54h-.7l2.64-7.54Z"/>
        <path class="cls-1" d="m448.96,16.19c-.32-.09-.57-.21-.75-.36l.32-.61c.19.13.41.24.68.32s.54.12.81.12c.67,0,1.01-.19,1.01-.58,0-.13-.05-.23-.14-.3-.09-.07-.2-.13-.34-.16-.14-.03-.33-.07-.58-.12-.34-.05-.62-.11-.84-.18-.22-.07-.4-.19-.56-.35-.15-.17-.23-.4-.23-.7,0-.38.16-.69.48-.92.32-.23.75-.35,1.29-.35.28,0,.56.04.85.1s.51.16.7.28l-.33.61c-.35-.22-.75-.34-1.22-.34-.33,0-.57.05-.74.16-.17.11-.26.25-.26.42,0,.14.05.25.14.33.1.08.21.14.36.18.14.04.34.08.6.13.34.06.62.12.83.19.21.07.39.18.54.34.15.16.22.38.22.67,0,.38-.16.69-.49.92-.33.23-.77.34-1.34.34-.35,0-.68-.05-1-.14Z"/>
        <path class="cls-1" d="m453.09,16.19c-.32-.09-.57-.21-.75-.36l.32-.61c.19.13.41.24.68.32s.54.12.81.12c.67,0,1.01-.19,1.01-.58,0-.13-.05-.23-.14-.3-.09-.07-.2-.13-.34-.16-.14-.03-.33-.07-.58-.12-.34-.05-.62-.11-.84-.18-.22-.07-.4-.19-.56-.35-.15-.17-.23-.4-.23-.7,0-.38.16-.69.48-.92.32-.23.75-.35,1.29-.35.28,0,.56.04.85.1s.51.16.7.28l-.33.61c-.35-.22-.75-.34-1.22-.34-.33,0-.57.05-.74.16-.17.11-.26.25-.26.42,0,.14.05.25.14.33.1.08.21.14.36.18.14.04.34.08.6.13.34.06.62.12.83.19.21.07.39.18.54.34.15.16.22.38.22.67,0,.38-.16.69-.49.92-.33.23-.77.34-1.34.34-.35,0-.68-.05-1-.14Z"/>
        <path class="cls-1" d="m460.55,12.47c.32.31.48.77.48,1.37v2.44h-.77v-2.35c0-.41-.1-.72-.3-.93s-.48-.31-.85-.31c-.42,0-.74.12-.98.36-.24.24-.36.59-.36,1.04v2.18h-.77v-4.24h.74v.64c.15-.22.36-.39.63-.5.26-.12.56-.18.9-.18.54,0,.97.16,1.28.47Z"/>
        <path class="cls-1" d="m286.83,22.68v5.6h-.66l-3.36-4.18v4.18h-.8v-5.6h.66l3.36,4.18v-4.18h.8Z"/>
        <path class="cls-1" d="m288.8,25.06c-.2-.12-.36-.27-.48-.47-.12-.2-.18-.42-.18-.66s.06-.45.18-.65c.12-.2.28-.36.48-.47.2-.12.42-.17.66-.17s.46.06.66.17c.2.11.36.27.48.47s.18.42.18.65-.06.46-.18.66c-.12.2-.28.36-.48.47-.2.11-.42.17-.66.17s-.46-.06-.66-.17Zm1.28-.51c.17-.17.25-.37.25-.62s-.08-.45-.25-.62c-.17-.17-.37-.25-.62-.25s-.45.08-.62.25c-.17.17-.25.37-.25.62s.08.46.25.62c.17.17.37.25.62.25s.45-.08.62-.25Z"/>
        <path class="cls-1" d="m298.26,22.35v5.94h-.74v-.67c-.17.23-.39.41-.65.54-.26.12-.55.18-.86.18-.41,0-.78-.09-1.1-.27-.33-.18-.58-.44-.76-.76-.18-.33-.28-.71-.28-1.13s.09-.8.28-1.13c.18-.33.44-.58.76-.76s.69-.27,1.1-.27c.3,0,.58.06.84.17.26.12.47.28.64.51v-2.34h.77Zm-1.46,5.12c.22-.13.39-.3.51-.53.12-.23.18-.49.18-.78s-.06-.55-.18-.78c-.12-.23-.29-.4-.51-.52s-.46-.18-.73-.18-.52.06-.73.18-.39.3-.51.52c-.12.23-.19.49-.19.78s.06.55.19.78c.13.23.3.4.51.53.22.12.46.19.73.19s.51-.06.73-.19Z"/>
        <path class="cls-1" d="m303.65,26.42h-3.44c.05.37.21.67.49.9.28.23.63.34,1.04.34.51,0,.91-.17,1.22-.51l.42.5c-.19.22-.43.39-.72.51-.29.12-.6.18-.96.18-.45,0-.85-.09-1.19-.28-.35-.18-.61-.44-.8-.77-.19-.33-.28-.7-.28-1.12s.09-.78.28-1.11c.18-.33.44-.59.76-.77.32-.18.69-.28,1.09-.28s.77.09,1.08.28c.32.18.57.44.74.77.18.33.27.71.27,1.14,0,.06,0,.14-.02.23Zm-3-1.43c-.25.22-.39.52-.44.88h2.72c-.04-.36-.19-.65-.44-.88s-.56-.34-.92-.34-.68.11-.92.34Z"/>
        <path class="cls-1" d="m307.13,23.08c-.1-.1-.15-.21-.15-.35s.05-.26.15-.36c.1-.1.22-.15.37-.15s.27.05.37.14c.1.09.15.21.15.35s-.05.27-.15.36-.22.15-.37.15-.27-.05-.37-.14Zm-.01.96h.77v4.24h-.77v-4.24Z"/>
        <path class="cls-1" d="m313.02,24.47c.32.31.48.77.48,1.37v2.44h-.77v-2.35c0-.41-.1-.72-.3-.93s-.48-.31-.85-.31c-.42,0-.74.12-.98.36-.24.24-.36.59-.36,1.04v2.18h-.77v-4.24h.74v.64c.15-.22.36-.39.63-.5.26-.12.56-.18.9-.18.54,0,.97.16,1.28.47Z"/>
        <path class="cls-1" d="m315.26,28.19c-.32-.09-.57-.21-.75-.36l.32-.61c.19.13.41.24.68.32s.54.12.81.12c.67,0,1.01-.19,1.01-.58,0-.13-.05-.23-.14-.3-.09-.07-.2-.13-.34-.16-.14-.03-.33-.07-.58-.12-.34-.05-.62-.11-.84-.18-.22-.07-.4-.19-.56-.35-.15-.17-.23-.4-.23-.7,0-.38.16-.69.48-.92.32-.23.75-.35,1.29-.35.28,0,.56.04.85.1s.51.16.7.28l-.33.61c-.35-.22-.75-.34-1.22-.34-.33,0-.57.05-.74.16-.17.11-.26.25-.26.42,0,.14.05.25.14.33.1.08.21.14.36.18.14.04.34.08.6.13.34.06.62.12.83.19.21.07.39.18.54.34.15.16.22.38.22.67,0,.38-.16.69-.49.92-.33.23-.77.34-1.34.34-.35,0-.68-.05-1-.14Z"/>
        <path class="cls-1" d="m319.86,28.05c-.34-.19-.6-.44-.8-.77s-.29-.7-.29-1.12.1-.79.29-1.12.46-.58.8-.77c.34-.18.72-.28,1.16-.28.38,0,.73.08,1.03.23s.53.38.7.67l-.58.38c-.13-.2-.3-.35-.5-.46s-.42-.15-.66-.15c-.28,0-.53.06-.75.18s-.39.3-.52.52c-.12.23-.19.49-.19.78s.06.56.19.79c.13.23.3.4.52.52.22.12.47.18.75.18.24,0,.46-.05.66-.15.2-.1.36-.25.5-.46l.58.37c-.17.29-.4.52-.7.68-.3.16-.64.24-1.03.24-.43,0-.82-.09-1.16-.28Z"/>
        <path class="cls-1" d="m325.19,24.2c.26-.13.58-.19.95-.19v.74s-.1,0-.18,0c-.42,0-.74.12-.98.37s-.36.6-.36,1.06v2.11h-.77v-4.24h.74v.71c.13-.25.33-.43.59-.56Z"/>
        <path class="cls-1" d="m327.21,23.08c-.1-.1-.15-.21-.15-.35s.05-.26.15-.36c.1-.1.22-.15.37-.15s.27.05.37.14c.1.09.15.21.15.35s-.05.27-.15.36-.22.15-.37.15-.27-.05-.37-.14Zm-.01.96h.77v4.24h-.77v-4.24Z"/>
        <path class="cls-1" d="m332.91,24.28c.33.18.58.43.76.76.18.33.28.7.28,1.13s-.09.8-.28,1.13c-.18.33-.44.58-.76.76-.33.18-.69.27-1.1.27-.3,0-.58-.06-.84-.18-.25-.12-.47-.29-.64-.51v2.19h-.77v-5.79h.74v.67c.17-.23.39-.41.65-.53.26-.12.55-.18.86-.18.41,0,.78.09,1.1.27Zm-.44,3.2c.22-.13.39-.3.51-.53.13-.23.19-.49.19-.78s-.06-.55-.19-.78c-.12-.23-.3-.4-.51-.52s-.46-.18-.73-.18-.51.06-.72.19-.39.3-.51.52c-.12.22-.19.48-.19.78s.06.55.18.78.29.4.51.53c.22.12.46.19.73.19s.52-.06.73-.19Z"/>
        <path class="cls-1" d="m335.82,28.05c-.34-.19-.6-.44-.8-.77s-.29-.7-.29-1.12.1-.79.29-1.12.46-.58.8-.77c.34-.18.72-.28,1.16-.28.38,0,.73.08,1.03.23s.53.38.7.67l-.58.38c-.13-.2-.3-.35-.5-.46s-.42-.15-.66-.15c-.28,0-.53.06-.75.18s-.39.3-.52.52c-.12.23-.19.49-.19.78s.06.56.19.79c.13.23.3.4.52.52.22.12.47.18.75.18.24,0,.46-.05.66-.15.2-.1.36-.25.5-.46l.58.37c-.17.29-.4.52-.7.68-.3.16-.64.24-1.03.24-.43,0-.82-.09-1.16-.28Z"/>
        <path class="cls-1" d="m339.83,23.08c-.1-.1-.15-.21-.15-.35s.05-.26.15-.36c.1-.1.22-.15.37-.15s.27.05.37.14c.1.09.15.21.15.35s-.05.27-.15.36-.22.15-.37.15-.27-.05-.37-.14Zm-.01.96h.77v4.24h-.77v-4.24Z"/>
        <path class="cls-1" d="m342.85,28.05c-.34-.19-.6-.44-.79-.77-.19-.33-.28-.7-.28-1.12s.09-.79.28-1.12c.19-.33.45-.58.79-.77.34-.18.71-.28,1.14-.28s.8.09,1.13.28c.33.18.59.44.78.77s.28.7.28,1.12-.09.79-.28,1.12-.45.58-.78.77c-.33.19-.71.28-1.13.28s-.8-.09-1.14-.28Zm1.87-.58c.22-.13.39-.3.51-.53.12-.23.18-.49.18-.78s-.06-.55-.18-.78c-.12-.23-.29-.4-.51-.52-.22-.12-.46-.18-.73-.18s-.52.06-.73.18-.39.3-.51.52c-.12.23-.19.49-.19.78s.06.55.19.78c.13.23.3.4.51.53.22.12.46.19.73.19s.52-.06.73-.19Zm-.25-5.08h.98l-1.34,1.04h-.72l1.09-1.04Z"/>
        <path class="cls-1" d="m350.92,24.47c.32.31.48.77.48,1.37v2.44h-.77v-2.35c0-.41-.1-.72-.3-.93s-.48-.31-.85-.31c-.42,0-.74.12-.98.36-.24.24-.36.59-.36,1.04v2.18h-.77v-4.24h.74v.64c.15-.22.36-.39.63-.5.26-.12.56-.18.9-.18.54,0,.97.16,1.28.47Z"/>
        <path class="cls-1" d="m359.03,26.42h-3.44c.05.37.21.67.49.9.28.23.63.34,1.04.34.51,0,.91-.17,1.22-.51l.42.5c-.19.22-.43.39-.72.51-.29.12-.6.18-.96.18-.45,0-.85-.09-1.19-.28-.35-.18-.61-.44-.8-.77-.19-.33-.28-.7-.28-1.12s.09-.78.28-1.11c.18-.33.44-.59.76-.77.32-.18.69-.28,1.09-.28s.77.09,1.08.28c.32.18.57.44.74.77.18.33.27.71.27,1.14,0,.06,0,.14-.02.23Zm-3-1.43c-.25.22-.39.52-.44.88h2.72c-.04-.36-.19-.65-.44-.88s-.56-.34-.92-.34-.68.11-.92.34Z"/>
        <path class="cls-1" d="m363.77,24.47c.32.31.48.77.48,1.37v2.44h-.77v-2.35c0-.41-.1-.72-.3-.93s-.48-.31-.85-.31c-.42,0-.74.12-.98.36-.24.24-.36.59-.36,1.04v2.18h-.77v-4.24h.74v.64c.15-.22.36-.39.63-.5.26-.12.56-.18.9-.18.54,0,.97.16,1.28.47Z"/>
        <path class="cls-1" d="m368.59,28.15c-.39-.13-.7-.3-.92-.51l.3-.62c.21.19.49.35.82.47.33.12.68.18,1.03.18.46,0,.81-.08,1.04-.24.23-.16.34-.37.34-.63,0-.19-.06-.35-.19-.47s-.28-.21-.46-.28c-.18-.06-.44-.14-.78-.22-.42-.1-.76-.2-1.02-.3s-.48-.26-.66-.47c-.18-.21-.28-.5-.28-.85,0-.3.08-.57.24-.81.16-.24.4-.43.72-.58.32-.14.72-.22,1.19-.22.33,0,.66.04.98.13.32.09.59.21.82.37l-.26.64c-.23-.15-.49-.26-.75-.34s-.53-.12-.78-.12c-.45,0-.79.08-1.02.25-.23.17-.34.38-.34.64,0,.19.06.35.19.47s.29.21.48.28c.19.07.45.14.77.21.42.1.76.2,1.02.3s.48.26.66.46c.18.21.28.49.28.84,0,.29-.08.56-.24.8-.16.24-.4.43-.73.58-.33.14-.73.21-1.2.21-.42,0-.83-.07-1.22-.2Z"/>
        <path class="cls-1" d="m373.68,28.15c-.39-.13-.7-.3-.92-.51l.3-.62c.21.19.49.35.82.47.33.12.68.18,1.03.18.46,0,.81-.08,1.04-.24.23-.16.34-.37.34-.63,0-.19-.06-.35-.19-.47s-.28-.21-.46-.28c-.18-.06-.44-.14-.78-.22-.42-.1-.76-.2-1.02-.3s-.48-.26-.66-.47c-.18-.21-.28-.5-.28-.85,0-.3.08-.57.24-.81.16-.24.4-.43.72-.58.32-.14.72-.22,1.19-.22.33,0,.66.04.98.13.32.09.59.21.82.37l-.26.64c-.23-.15-.49-.26-.75-.34s-.53-.12-.78-.12c-.45,0-.79.08-1.02.25-.23.17-.34.38-.34.64,0,.19.06.35.19.47s.29.21.48.28c.19.07.45.14.77.21.42.1.76.2,1.02.3s.48.26.66.46c.18.21.28.49.28.84,0,.29-.08.56-.24.8-.16.24-.4.43-.73.58-.33.14-.73.21-1.2.21-.42,0-.83-.07-1.22-.2Z"/>
        <path class="cls-1" d="m383.17,22.68v5.6h-.66l-3.36-4.18v4.18h-.8v-5.6h.66l3.36,4.18v-4.18h.8Z"/>
        <path class="cls-1" d="m384.66,24.94c-.11-.1-.16-.24-.16-.4s.05-.28.16-.39c.11-.1.23-.16.38-.16s.27.05.38.15c.1.1.15.23.15.39s-.05.29-.16.4c-.1.1-.23.16-.37.16s-.28-.05-.38-.16Zm0,3.23c-.11-.1-.16-.24-.16-.4s.05-.28.16-.39c.11-.1.23-.16.38-.16s.27.05.38.15c.1.1.15.23.15.39s-.05.29-.16.4c-.1.1-.23.16-.37.16s-.28-.05-.38-.16Z"/>
        <path class="cls-1" d="m389.83,28.01c-.34-.23-.61-.56-.81-.99-.2-.43-.3-.94-.3-1.54s.1-1.1.3-1.54c.2-.43.47-.76.81-.99.34-.23.74-.34,1.18-.34s.83.11,1.17.34c.34.23.61.56.81.99s.3.94.3,1.54-.1,1.1-.3,1.54c-.2.43-.47.76-.81.99-.34.23-.73.34-1.17.34s-.84-.11-1.18-.34Zm2.26-.92c.27-.37.4-.9.4-1.6s-.13-1.23-.4-1.6c-.27-.37-.63-.55-1.08-.55s-.81.18-1.08.55c-.27.37-.4.9-.4,1.6s.13,1.23.4,1.6c.27.37.63.55,1.08.55s.81-.18,1.08-.55Z"/>
        <path class="cls-1" d="m398.2,22.68v.54l-2.26,5.06h-.85l2.22-4.9h-2.56v1h-.77v-1.7h4.22Z"/>
        <path class="cls-1" d="m402.24,25.37c.38.3.56.71.56,1.24,0,.33-.08.63-.24.89-.16.26-.4.47-.71.62s-.71.23-1.17.23c-.39,0-.78-.06-1.14-.18-.37-.12-.67-.29-.91-.5l.37-.63c.19.18.44.33.74.44.3.11.61.16.94.16.42,0,.75-.09.98-.27s.35-.42.35-.73c0-.34-.13-.59-.38-.76-.26-.17-.69-.26-1.31-.26h-1.27l.3-2.93h3.16v.7h-2.49l-.15,1.54h.62c.8,0,1.39.15,1.76.45Z"/>
        <path class="cls-1" d="m405.33,22.68v5.6h-.79v-4.9h-1.26v-.7h2.06Z"/>
      </g>
      <path class="cls-1" d="m270.08,32.35h-.99V5.52h.99v26.83Z"/>
    </g>
  </g>
</svg>