<?xml version="1.0" encoding="UTF-8"?>
<svg id="_Шар_2" data-name="Шар 2" xmlns="http://www.w3.org/2000/svg" viewBox="0 0 52 52">
  <defs>
    <style>
      .cls-1 {
        fill: #91c3d6;
      }
    </style>
  </defs>
  <g id="Capa_1" data-name="Capa 1">
    <path class="cls-1" d="m26,52C11.66,52,0,40.34,0,26S11.66,0,26,0s26,11.66,26,26-11.66,26-26,26Zm0-50C12.77,2,2,12.77,2,26s10.77,24,24,24,24-10.77,24-24S39.23,2,26,2Z"/>
    <path class="cls-1" d="m15.35,30.44c-.26,0-.51-.1-.71-.29-.39-.39-.39-1.02,0-1.41l10.65-10.65c.38-.38,1.04-.38,1.41,0l10.65,10.65c.39.39.39,1.02,0,1.41s-1.02.39-1.41,0l-9.94-9.94-9.94,9.94c-.2.2-.45.29-.71.29Z"/>
  </g>
</svg>