<?xml version="1.0" encoding="UTF-8"?>
<svg id="_Шар_2" data-name="Шар 2" xmlns="http://www.w3.org/2000/svg" viewBox="0 0 78.32 71.62">
  <defs>
    <style>
      .cls-1 {
        fill: #91c3d6;
      }
    </style>
  </defs>
  <g id="Capa_1" data-name="Capa 1">
    <path class="cls-1" d="m69.39,71.62h-7.8c-.69,0-1.25-.56-1.25-1.25s.56-1.25,1.25-1.25h7.8c3.54,0,6.43-2.88,6.43-6.43V21.51c0-3.54-2.88-6.43-6.43-6.43H8.93c-3.54,0-6.43,2.88-6.43,6.43v41.18c0,3.54,2.88,6.43,6.43,6.43h41.41c.69,0,1.25.56,1.25,1.25s-.56,1.25-1.25,1.25H8.93c-4.92,0-8.93-4-8.93-8.93V21.51c0-4.92,4-8.93,8.93-8.93h60.47c4.92,0,8.93,4,8.93,8.93v41.18c0,4.92-4,8.93-8.93,8.93Z"/>
    <path class="cls-1" d="m55.06,14.17c-.69,0-1.25-.56-1.25-1.25v-5.26c0-2.85-2.32-5.17-5.17-5.17h-18.97c-2.85,0-5.17,2.32-5.17,5.17v5.26c0,.69-.56,1.25-1.25,1.25s-1.25-.56-1.25-1.25v-5.26c0-4.23,3.44-7.67,7.67-7.67h18.97c4.23,0,7.67,3.44,7.67,7.67v5.26c0,.69-.56,1.25-1.25,1.25Z"/>
    <g>
      <path class="cls-1" d="m46.9,34.07h-18.57c-.69,0-1.25-.56-1.25-1.25s.56-1.25,1.25-1.25h18.57c.69,0,1.25.56,1.25,1.25s-.56,1.25-1.25,1.25Z"/>
      <path class="cls-1" d="m67.01,34.07h-6.19c-.69,0-1.25-.56-1.25-1.25s.56-1.25,1.25-1.25h6.19c.69,0,1.25.56,1.25,1.25s-.56,1.25-1.25,1.25Z"/>
      <path class="cls-1" d="m17.5,34.07h-6.19c-.69,0-1.25-.56-1.25-1.25s.56-1.25,1.25-1.25h6.19c.69,0,1.25.56,1.25,1.25s-.56,1.25-1.25,1.25Z"/>
      <path class="cls-1" d="m26.78,39.49h-7.74c-.69,0-1.25-.56-1.25-1.25v-10.83c0-.69.56-1.25,1.25-1.25h7.74c.69,0,1.25.56,1.25,1.25v10.83c0,.69-.56,1.25-1.25,1.25Zm-6.49-2.5h5.24v-8.33h-5.24v8.33Z"/>
      <path class="cls-1" d="m60.82,39.49h-7.74c-.69,0-1.25-.56-1.25-1.25v-10.83c0-.69.56-1.25,1.25-1.25h7.74c.69,0,1.25.56,1.25,1.25v10.83c0,.69-.56,1.25-1.25,1.25Zm-6.49-2.5h5.24v-8.33h-5.24v8.33Z"/>
    </g>
  </g>
</svg>