<?xml version="1.0" encoding="UTF-8"?>
<svg id="_Шар_2" data-name="Шар 2" xmlns="http://www.w3.org/2000/svg" viewBox="0 0 106.19 68.53">
  <defs>
    <style>
      .cls-1 {
        fill: #91c3d6;
      }
    </style>
  </defs>
  <g id="Capa_1" data-name="Capa 1">
    <g>
      <path class="cls-1" d="m53.1,48.55c-7.45,0-13.51-6.06-13.51-13.51s6.06-13.51,13.51-13.51,13.51,6.06,13.51,13.51-6.06,13.51-13.51,13.51Zm0-24.51c-6.07,0-11.01,4.94-11.01,11.01s4.94,11.01,11.01,11.01,11.01-4.94,11.01-11.01-4.94-11.01-11.01-11.01Z"/>
      <g>
        <path class="cls-1" d="m32.98,68.53c-.69,0-1.25-.56-1.25-1.25v-6.8c0-6.33,5.15-11.47,11.47-11.47.69,0,1.25.56,1.25,1.25s-.56,1.25-1.25,1.25c-4.95,0-8.97,4.02-8.97,8.97v6.8c0,.69-.56,1.25-1.25,1.25Z"/>
        <path class="cls-1" d="m73.21,68.53c-.69,0-1.25-.56-1.25-1.25v-6.8c0-4.95-4.02-8.97-8.97-8.97-.69,0-1.25-.56-1.25-1.25s.56-1.25,1.25-1.25c6.33,0,11.47,5.15,11.47,11.47v6.8c0,.69-.56,1.25-1.25,1.25Z"/>
      </g>
    </g>
    <g>
      <g>
        <path class="cls-1" d="m89.19,21.57c-2.86,0-5.56-1.11-7.59-3.13-2.04-2.03-3.18-4.73-3.19-7.61-.01-2.88,1.1-5.59,3.12-7.64C83.56,1.15,86.26.01,89.14,0c2.88,0,5.59,1.1,7.64,3.13,2.04,2.03,3.18,4.73,3.19,7.61.03,5.95-4.79,10.8-10.74,10.83h-.05Zm0-19.07h-.04c-2.21,0-4.29.88-5.85,2.45-1.56,1.57-2.41,3.65-2.4,5.87s.88,4.29,2.45,5.85c1.57,1.56,3.69,2.41,5.87,2.4,4.57-.02,8.27-3.75,8.25-8.32,0-2.21-.88-4.29-2.45-5.85-1.56-1.55-3.63-2.4-5.83-2.4Z"/>
        <g>
          <path class="cls-1" d="m73.65,38.72c-.69,0-1.25-.56-1.25-1.24l-.02-5.29c-.01-2.46.94-4.77,2.67-6.52,1.73-1.75,4.04-2.71,6.49-2.72h0c.69,0,1.25.56,1.25,1.24,0,.69-.55,1.25-1.25,1.26-1.79,0-3.47.71-4.73,1.98-1.26,1.27-1.95,2.96-1.94,4.75l.02,5.29c0,.69-.55,1.25-1.25,1.26h0Z"/>
          <path class="cls-1" d="m104.94,38.58c-.69,0-1.25-.56-1.25-1.24l-.02-5.29c-.02-3.69-3.02-6.67-6.7-6.67-.01,0-.02,0-.04,0-.69,0-1.25-.56-1.25-1.24,0-.69.55-1.25,1.24-1.26h.04c5.05,0,9.18,4.1,9.2,9.16l.02,5.29c0,.69-.55,1.25-1.25,1.26h0Z"/>
        </g>
      </g>
      <g>
        <path class="cls-1" d="m16.81,21.92c-2.86,0-5.56-1.11-7.59-3.13-2.04-2.03-3.18-4.73-3.19-7.61s1.1-5.59,3.12-7.64C11.18,1.5,13.88.36,16.76.35h.05c2.86,0,5.56,1.11,7.59,3.13,2.04,2.03,3.18,4.73,3.19,7.61s-1.1,5.59-3.12,7.64c-2.03,2.05-4.73,3.18-7.61,3.19h-.05Zm0-19.07h-.04c-2.21,0-4.29.88-5.85,2.45-1.56,1.57-2.41,3.65-2.4,5.87s.88,4.29,2.45,5.85c1.56,1.55,3.63,2.4,5.83,2.4h.04c2.21,0,4.29-.88,5.85-2.45,1.56-1.57,2.41-3.65,2.4-5.87s-.88-4.29-2.45-5.85c-1.56-1.55-3.63-2.4-5.83-2.4Z"/>
        <g>
          <path class="cls-1" d="m1.27,39.07c-.69,0-1.25-.56-1.25-1.24L0,32.54c-.02-5.07,4.09-9.22,9.16-9.24h0c.69,0,1.25.56,1.25,1.24,0,.69-.55,1.25-1.24,1.26-3.69.02-6.69,3.03-6.67,6.73l.02,5.29c0,.69-.55,1.25-1.25,1.26h0Z"/>
          <path class="cls-1" d="m32.56,38.94c-.69,0-1.25-.56-1.25-1.24l-.02-5.29c0-1.79-.71-3.47-1.98-4.73-1.27-1.26-2.92-1.98-4.75-1.94h0c-.69,0-1.25-.56-1.25-1.24,0-.69.55-1.25,1.25-1.26h.04c2.44,0,4.74.95,6.48,2.67,1.75,1.73,2.71,4.04,2.72,6.49l.02,5.29c0,.69-.55,1.25-1.25,1.26h0Z"/>
        </g>
      </g>
    </g>
  </g>
</svg>