<?xml version="1.0" encoding="UTF-8"?>
<svg id="_Шар_2" data-name="Шар 2" xmlns="http://www.w3.org/2000/svg" viewBox="0 0 81.96 81.96">
  <defs>
    <style>
      .cls-1 {
        fill: #91c3d6;
      }
    </style>
  </defs>
  <g id="Capa_1" data-name="Capa 1">
    <g>
      <path class="cls-1" d="m41.03,81.96c-.75,0-1.5-.02-2.26-.06C16.21,80.69-1.16,61.34.06,38.77c.59-10.93,5.4-20.98,13.55-28.29C21.75,3.17,32.27-.53,43.19.06c6.68.36,13.22,2.36,18.92,5.79.59.36.78,1.12.42,1.72-.36.59-1.12.78-1.72.43-5.34-3.22-11.48-5.1-17.76-5.44-10.25-.55-20.13,2.92-27.78,9.79C7.63,19.21,3.11,28.65,2.56,38.91c-1.14,21.19,15.17,39.36,36.35,40.5,10.26.55,20.13-2.92,27.78-9.79,7.65-6.87,12.17-16.3,12.72-26.56.25-4.58-.31-9.1-1.65-13.44-.2-.66.17-1.36.83-1.56.66-.2,1.36.17,1.56.82,1.43,4.62,2.02,9.44,1.76,14.32-.59,10.93-5.4,20.98-13.55,28.29-7.58,6.81-17.21,10.49-27.33,10.49Z"/>
      <path class="cls-1" d="m39.82,52.45c-.28,0-.55-.09-.79-.28l-19.08-15.4c-.54-.43-.62-1.22-.19-1.76.43-.54,1.22-.62,1.76-.19l18.17,14.66L78.2,7.3c.46-.51,1.26-.55,1.77-.08.51.47.55,1.26.08,1.77l-39.31,43.06c-.25.27-.58.41-.92.41Z"/>
    </g>
  </g>
</svg>