<?xml version="1.0" encoding="UTF-8"?>
<svg id="_Шар_2" data-name="Шар 2" xmlns="http://www.w3.org/2000/svg" viewBox="0 0 86.06 81.41">
  <defs>
    <style>
      .cls-1 {
        fill: #91c3d6;
      }
    </style>
  </defs>
  <g id="Capa_1" data-name="Capa 1">
    <g>
      <path class="cls-1" d="m74.75,81.41h-34.04c-.69,0-1.25-.56-1.25-1.25V16.72c0-.49.29-.94.73-1.14L74.23.11c.39-.18.84-.14,1.19.09.36.23.57.63.57,1.05v78.91c0,.69-.56,1.25-1.25,1.25Zm-32.79-2.5h31.54V3.19l-31.54,14.34v61.39Z"/>
      <path class="cls-1" d="m11.31,81.41c-.69,0-1.25-.56-1.25-1.25V27.55c0-.4.19-.77.51-1.01.32-.23.74-.3,1.12-.18l29.4,9.28c.66.21,1.02.91.82,1.57-.21.66-.91,1.02-1.57.82l-27.77-8.77v50.9c0,.69-.56,1.25-1.25,1.25Z"/>
      <path class="cls-1" d="m84.81,81.41H1.25c-.69,0-1.25-.56-1.25-1.25s.56-1.25,1.25-1.25h83.56c.69,0,1.25.56,1.25,1.25s-.56,1.25-1.25,1.25Z"/>
      <g>
        <path class="cls-1" d="m22.91,47.37h-4.64c-.69,0-1.25-.56-1.25-1.25s.56-1.25,1.25-1.25h4.64c.69,0,1.25.56,1.25,1.25s-.56,1.25-1.25,1.25Z"/>
        <path class="cls-1" d="m33.74,47.37h-4.64c-.69,0-1.25-.56-1.25-1.25s.56-1.25,1.25-1.25h4.64c.69,0,1.25.56,1.25,1.25s-.56,1.25-1.25,1.25Z"/>
      </g>
      <g>
        <path class="cls-1" d="m54.63,47.37h-4.64c-.69,0-1.25-.56-1.25-1.25s.56-1.25,1.25-1.25h4.64c.69,0,1.25.56,1.25,1.25s-.56,1.25-1.25,1.25Z"/>
        <path class="cls-1" d="m65.46,47.37h-4.64c-.69,0-1.25-.56-1.25-1.25s.56-1.25,1.25-1.25h4.64c.69,0,1.25.56,1.25,1.25s-.56,1.25-1.25,1.25Z"/>
      </g>
      <g>
        <path class="cls-1" d="m54.63,39.64h-4.64c-.69,0-1.25-.56-1.25-1.25s.56-1.25,1.25-1.25h4.64c.69,0,1.25.56,1.25,1.25s-.56,1.25-1.25,1.25Z"/>
        <path class="cls-1" d="m65.46,39.64h-4.64c-.69,0-1.25-.56-1.25-1.25s.56-1.25,1.25-1.25h4.64c.69,0,1.25.56,1.25,1.25s-.56,1.25-1.25,1.25Z"/>
      </g>
      <g>
        <path class="cls-1" d="m54.63,31.9h-4.64c-.69,0-1.25-.56-1.25-1.25s.56-1.25,1.25-1.25h4.64c.69,0,1.25.56,1.25,1.25s-.56,1.25-1.25,1.25Z"/>
        <path class="cls-1" d="m65.46,31.9h-4.64c-.69,0-1.25-.56-1.25-1.25s.56-1.25,1.25-1.25h4.64c.69,0,1.25.56,1.25,1.25s-.56,1.25-1.25,1.25Z"/>
      </g>
      <g>
        <path class="cls-1" d="m22.91,55.11h-4.64c-.69,0-1.25-.56-1.25-1.25s.56-1.25,1.25-1.25h4.64c.69,0,1.25.56,1.25,1.25s-.56,1.25-1.25,1.25Z"/>
        <path class="cls-1" d="m33.74,55.11h-4.64c-.69,0-1.25-.56-1.25-1.25s.56-1.25,1.25-1.25h4.64c.69,0,1.25.56,1.25,1.25s-.56,1.25-1.25,1.25Z"/>
      </g>
    </g>
  </g>
</svg>